
<svg width="132" height="14" viewBox="0 0 132 14" fill="none" xmlns="http://www.w3.org/2000/svg">
<path fill-rule="evenodd" clip-rule="evenodd" d="M10.8825 13.9364L6.77204 2.36055L4.06046 2.3584L0 13.9342H2.47366L3.21714 11.5537H7.64457L8.42151 13.9364H10.8825ZM7.00995 9.60582H3.83636L5.42687 4.67915L7.00995 9.60582ZM19.5211 2.3584H14.1474L14.1505 13.9364H19.3528C22.0452 13.9364 23.5062 12.617 23.5062 10.413C23.5062 9.05431 22.93 8.15359 21.7409 7.67036C22.6613 7.23505 23.1026 6.44621 23.1026 5.28557C23.1026 3.40389 21.8822 2.3584 19.5211 2.3584ZM20.7389 5.57345C20.7389 6.4629 20.2014 6.83202 19.0777 6.83202H16.3953V4.37029H19.0559C20.1866 4.37029 20.7389 4.68453 20.7389 5.57345ZM21.0638 10.3446C21.0638 11.4025 20.4558 11.8437 19.1701 11.8437H16.3996V8.81111H19.1568C20.4558 8.81111 21.0638 9.21468 21.0638 10.3446ZM32.5644 2.3584L36.6743 13.9364H34.2139L33.4343 11.5553H29.0079L28.2618 13.9364H25.7918L29.8444 2.3584H32.5644ZM29.6303 9.60481H32.8034L31.2193 4.67701L29.6303 9.60481ZM74.5663 2.36827L71.0607 14.0001H67.7039L68.8038 10.3427H63.842L62.7417 14.0001H59.4178L61.927 5.65919C62.0758 5.15985 62.3105 4.70732 62.6313 4.30107C62.9525 3.89482 63.3275 3.54667 63.7571 3.25664C64.1867 2.96608 64.6594 2.74546 65.175 2.5948C65.6901 2.4436 66.2233 2.36827 66.773 2.36827H74.5663ZM49.2306 2.36827H60.8729L59.4301 7.13892C59.2808 7.64956 59.0519 8.1021 58.7423 8.49705C58.4332 8.89199 58.0663 9.22557 57.6425 9.49786C57.2187 9.77125 56.7514 9.98054 56.2421 10.1247C55.7323 10.2706 55.2018 10.3427 54.6521 10.3427H50.1785L49.0659 14.0001H45.7245L49.2306 2.36827ZM83.4557 6.94306L84.8402 2.36827H88.1798L86.2891 8.65415C86.015 9.55977 85.6454 10.3459 85.1811 11.0131C84.7167 11.6809 84.1445 12.2378 83.4627 12.6855C82.781 13.1326 81.9789 13.4625 81.0565 13.6771C80.134 13.8924 79.0718 14.0001 77.869 14.0001H73.0824L73.9152 11.2445H79.262C80.6395 11.2445 81.85 10.6601 82.3928 9.69915H78.1183C76.9034 9.69915 76.0585 9.43222 75.5832 8.8979C75.1074 8.36413 75.0245 7.58661 75.3341 6.56478L76.5885 2.36827H79.9298L78.9227 5.68932C78.6587 6.52496 79.0143 6.94306 79.988 6.94306H83.4557ZM65.0853 6.34686L64.6737 7.56992H69.6698L70.4856 5.09313H66.9068C65.9445 5.09313 65.337 5.51121 65.0853 6.34686ZM54.5162 7.56992C55.4667 7.56992 56.0738 7.15183 56.3377 6.31619L56.7015 5.09313H51.7494L51.0032 7.56992H54.5162Z" fill="#005D7B"/>
<path fill-rule="evenodd" clip-rule="evenodd" d="M114.88 14L118.386 2.36816H110.592C110.043 2.36816 109.509 2.4435 108.994 2.59469C108.479 2.74536 108.006 2.96598 107.577 3.25654C107.147 3.54657 106.772 3.89471 106.451 4.30097C106.13 4.70722 105.895 5.15975 105.746 5.65908L103.237 14H106.561L107.661 10.3426H112.623L111.523 14H114.88ZM128.659 2.36816L127.275 6.94296H123.808C122.833 6.94296 122.479 6.52486 122.743 5.68921L123.75 2.36816H120.408L119.154 6.56468C118.844 7.5865 118.927 8.36403 119.403 8.8978C119.878 9.43212 120.723 9.69905 121.937 9.69905H126.212C125.67 10.66 124.459 11.2444 123.082 11.2444H117.734L116.902 14H121.688C122.891 14 123.953 13.8923 124.876 13.677C125.798 13.4624 126.6 13.1325 127.282 12.6854C127.963 12.2377 128.537 11.6808 129 11.013C129.464 10.3458 129.834 9.55967 130.109 8.65405L132 2.36816H128.659ZM101.283 2.36816L98.6098 11.2438H96.3309L99.0835 2.36816H95.7905L93.0542 11.1895C92.4998 11.1142 92.0805 10.9597 91.8017 10.7214C91.3949 10.3732 91.318 9.78133 91.5704 8.94517L93.5558 2.36816H90.2325L88.3418 8.65351C88.0661 9.55913 87.9574 10.3458 88.0149 11.0135C88.0724 11.6808 88.31 12.2388 88.7285 12.6849C89.1462 13.132 89.7534 13.4624 90.5501 13.6776C91.346 13.8923 92.3391 14 93.5309 14H101.134L104.64 2.36816H101.283ZM108.493 7.56982L108.904 6.34675C109.157 5.51111 109.764 5.09303 110.726 5.09303H114.305L113.489 7.56982H108.493Z" fill="#3BC0CA"/>
<path d="M40.1952 0H37.8677V4.71684H40.1952V0Z" fill="#EC1E24"/>
</svg>
