<svg version="1.1" id="Layer_1" xmlns="http://www.w3.org/2000/svg" xmlns:xlink="http://www.w3.org/1999/xlink" x="0px" y="0px"
	 width="100%" viewBox="0 0 500 500" enable-background="new 0 0 500 500" xml:space="preserve">
<path fill="#000000" opacity="1.000000" stroke="none" 
	d="
M293.000000,501.000000 
	C195.333359,501.000000 98.166710,501.000000 1.000052,501.000000 
	C1.000035,334.333405 1.000035,167.666794 1.000017,1.000142 
	C167.666565,1.000094 334.333130,1.000094 500.999756,1.000047 
	C500.999847,167.666519 500.999847,334.333038 500.999939,500.999786 
	C431.833344,501.000000 362.666656,501.000000 293.000000,501.000000 
M336.018463,208.980896 
	C336.018463,208.980896 336.090637,208.974640 335.928589,208.455231 
	C335.627167,208.272797 335.325714,208.090378 335.020660,207.980362 
	C335.020660,207.980362 335.088806,207.955673 335.020477,207.240005 
	C331.028870,202.797028 327.037262,198.354050 323.019592,193.979126 
	C323.019592,193.979126 323.092224,193.973434 322.929962,193.453384 
	C322.627380,193.272827 322.324799,193.092270 322.017761,192.982925 
	C322.017761,192.982925 322.085480,192.960342 321.994415,192.273956 
	C321.342499,191.821136 320.690582,191.368332 320.015869,190.982895 
	C320.015869,190.982895 320.086731,190.976608 319.928192,190.455902 
	C319.626495,190.274002 319.324768,190.092087 319.017700,189.981628 
	C319.017700,189.981628 319.085968,189.959793 319.006012,189.266937 
	C318.347504,188.820786 317.688965,188.374634 317.007935,187.991364 
	C317.007935,187.991364 317.074036,187.981659 316.920715,187.462341 
	C316.622223,187.277328 316.323700,187.092316 316.018097,186.979599 
	C316.018097,186.979599 316.090637,186.975647 315.930389,186.449051 
	C315.628540,186.256531 315.326691,186.064011 314.977753,185.299271 
	C314.700012,184.857986 314.422272,184.416702 313.895569,183.342957 
	C311.580078,181.283386 309.264557,179.223816 306.528107,177.041122 
	C306.528107,177.041122 306.093658,176.980865 305.916718,176.471436 
	C305.620209,176.284439 305.323700,176.097427 305.013000,175.980606 
	C305.013000,175.980606 305.081818,175.960831 305.004883,175.268478 
	C304.349548,174.818024 303.694183,174.367569 303.011353,173.986832 
	C303.011353,173.986832 303.079651,173.955948 302.830536,173.347672 
	C301.235718,171.872101 299.640869,170.396530 298.016083,168.986115 
	C298.016083,168.986115 298.087219,168.976929 297.923981,168.449600 
	C297.621399,168.255371 297.318817,168.061157 296.905670,167.433197 
	C296.737274,167.156616 296.491882,167.003128 295.915588,166.329834 
	C290.288696,161.863693 284.661804,157.397568 279.009613,152.994110 
	C279.009613,152.994110 279.074738,152.976074 278.913025,152.460129 
	C278.598816,152.367447 278.284576,152.274765 277.545197,152.041306 
	C277.545197,152.041306 277.100891,151.984818 276.923096,151.470154 
	C276.624329,151.279724 276.325592,151.089294 276.018585,150.972290 
	C276.018585,150.972290 276.089203,150.950485 275.887543,150.351089 
	C275.212158,149.562637 274.536774,148.774200 274.015991,147.203201 
	C273.967407,146.142624 273.918823,145.082062 274.212250,143.287918 
	C274.419281,141.185028 274.626312,139.082138 274.967285,136.053543 
	C274.640289,125.147629 273.801849,114.223427 274.190979,103.343117 
	C274.401825,97.448051 272.110199,95.010727 267.023041,93.967537 
	C267.023041,93.967537 267.096802,93.957298 266.813202,93.297043 
	C265.540894,92.813995 264.268585,92.330940 262.909576,91.424004 
	C262.749573,91.148918 262.510498,91.007385 261.875153,90.358101 
	C260.268188,89.528603 258.661224,88.699104 257.025299,87.953041 
	C257.025299,87.953041 257.111328,87.973061 256.962524,87.408401 
	C256.623047,87.313988 256.283600,87.219574 255.566895,87.017014 
	C255.566895,87.017014 255.174896,86.999001 254.861084,86.346581 
	C253.555115,85.963303 252.249146,85.580025 250.518997,85.053337 
	C250.518997,85.053337 250.074463,84.999733 249.899155,84.485161 
	C249.601059,84.294083 249.302948,84.103012 249.007568,83.990753 
	C249.007568,83.990753 249.086258,83.985550 248.936295,83.427780 
	C248.599472,83.332039 248.262634,83.236305 247.294312,82.788116 
	C246.838028,82.309807 246.465149,81.679863 245.912857,81.376099 
	C238.488800,77.292770 231.104538,73.128510 223.567337,69.263306 
	C220.196976,67.534912 215.737305,64.431976 213.116806,65.441986 
	C206.977524,67.808235 201.649948,72.280426 195.113419,76.003464 
	C194.748978,77.270157 194.069443,78.536072 194.066299,79.803658 
	C193.995239,108.542641 193.852051,137.283142 194.112808,166.019806 
	C194.163895,171.650040 193.540268,176.407181 188.439606,179.815216 
	C188.439606,179.815216 188.086655,179.742126 188.013199,178.839737 
	C188.359268,164.615097 188.902374,150.391434 188.972839,136.165421 
	C189.011215,128.419235 188.247345,120.669083 187.982025,112.078865 
	C189.563950,101.774384 189.607483,91.493042 188.063354,80.469261 
	C181.472321,82.132935 175.857407,84.090889 170.218277,88.334320 
	C170.192673,125.893005 170.167068,163.451691 169.846191,201.641129 
	C168.853088,203.419708 167.859985,205.198303 166.434006,207.084015 
	C166.154587,207.249512 166.003632,207.494247 165.450439,208.025650 
	C165.262344,208.342255 165.074234,208.658859 164.961731,208.968842 
	C164.961731,208.968842 164.938187,208.896713 164.355881,209.167114 
	C163.875443,210.097595 163.395004,211.028091 162.982681,211.982712 
	C162.982681,211.982712 162.970932,211.911423 162.498093,211.949448 
	C162.498093,211.949448 162.028076,211.885178 162.020294,211.987808 
	C162.020294,211.987808 162.123169,211.990829 162.024734,211.055679 
	C162.014999,200.549622 162.001587,190.043549 161.996353,179.537491 
	C161.987869,162.541779 161.981659,145.546082 161.980682,128.550369 
	C161.980164,119.725235 162.029816,110.899902 161.983536,102.075043 
	C161.961578,97.887802 160.061066,96.895691 156.460281,99.046608 
	C154.081787,100.467392 151.729477,101.937386 149.302155,103.270096 
	C136.476547,110.311882 136.469574,110.299187 137.018127,126.001839 
	C137.068802,153.656570 137.119461,181.311295 137.027405,209.901031 
	C137.061844,222.932861 137.096298,235.964706 136.963806,249.720718 
	C134.259384,255.117203 131.554962,260.513672 128.932770,265.967041 
	C128.932770,265.967041 128.905029,265.870972 128.255325,266.158173 
	C127.463760,268.082031 126.672203,270.005920 125.957283,271.981659 
	C125.957283,271.981659 125.928665,271.893646 125.260399,272.153931 
	C123.129166,276.747375 120.997940,281.340851 118.942360,285.964539 
	C118.942360,285.964539 118.933311,285.883575 118.255943,286.142395 
	C113.811394,297.418610 109.366844,308.694824 104.984169,320.000580 
	C104.984169,320.000580 104.961868,319.935760 104.466576,320.091400 
	C104.345398,320.390228 104.224213,320.689056 103.926781,321.705688 
	C103.898697,322.443481 103.870621,323.181305 103.250648,324.313080 
	C102.874207,325.878723 102.497765,327.444336 101.933731,329.808197 
	C101.667198,332.528107 101.400665,335.248016 100.983429,338.377136 
	C100.983429,338.377136 100.985001,338.813171 100.350365,339.286804 
	C100.185013,340.845581 100.019653,342.404388 99.221870,344.445557 
	C98.984779,352.587128 97.759949,360.849426 98.736740,368.842651 
	C100.291710,381.567108 104.636871,393.575806 112.030190,404.327576 
	C120.198349,416.206207 130.667679,425.204041 144.742722,430.947998 
	C146.357941,431.642487 147.976562,432.329163 149.587830,433.032684 
	C159.212860,437.235474 169.386826,437.003754 179.595047,436.989960 
	C199.259506,436.963348 215.520615,428.971039 229.578323,415.911987 
	C238.008423,408.080780 243.787125,398.311249 248.171219,388.315186 
	C252.690125,394.876007 257.234039,401.473145 261.922607,408.733185 
	C262.925049,409.896790 263.927460,411.060425 265.108917,412.606110 
	C265.281708,412.843475 265.509583,413.001251 265.993866,413.517212 
	C266.168243,413.804688 266.416321,413.997192 267.101532,414.677979 
	C280.373108,427.597137 296.099152,435.228119 314.657440,436.776337 
	C330.109283,438.065369 345.154297,436.423004 359.350769,429.904449 
	C362.877075,428.285278 365.862488,425.488190 369.772247,422.993591 
	C382.759216,416.177826 390.929443,404.620453 396.685242,392.035278 
	C402.808105,378.647522 406.313660,364.114685 402.859100,348.204376 
	C401.885376,343.129639 400.911652,338.054901 399.973633,332.347900 
	C399.659821,331.874023 399.346008,331.400146 399.051910,331.003479 
	C399.051910,331.003479 399.128998,330.983368 398.964539,330.174438 
	C398.414246,327.665039 398.078949,325.084534 397.276459,322.658539 
	C393.787231,312.109985 390.508118,301.470764 386.457947,291.136749 
	C383.975525,284.802887 380.235413,278.961945 377.037506,272.979706 
	C377.037506,272.979706 377.112091,272.942902 376.993195,272.196381 
	C373.070770,264.679779 369.328766,257.061127 365.155304,249.686584 
	C362.818634,245.557678 359.766937,241.833435 357.010559,237.992523 
	C357.010559,237.992523 357.076263,237.965698 356.993408,237.243759 
	C353.350128,232.130676 349.706879,227.017578 346.031464,221.987183 
	C346.031464,221.987183 346.106628,221.940063 346.046326,221.219757 
	C343.711365,218.454453 341.376404,215.689163 339.014069,212.991760 
	C339.014069,212.991760 339.081573,212.963470 339.011566,212.305923 
	C338.358612,211.509705 337.705627,210.713486 337.016937,209.981979 
	C337.016937,209.981979 337.090363,209.973465 336.928223,209.454483 
	C336.626831,209.272537 336.325439,209.090591 336.018463,208.980896 
z"/>
<path fill="#D4A857" opacity="1.000000" stroke="none" 
	d="
M262.192322,90.999405 
	C262.510498,91.007385 262.749573,91.148918 263.101013,91.963409 
	C264.560547,92.987648 265.828674,93.472473 267.096802,93.957298 
	C267.096802,93.957298 267.023041,93.967537 267.074585,94.272980 
	C269.094971,97.394722 271.063843,100.211021 272.658569,103.020836 
	C270.972137,102.413742 269.678314,101.768127 268.344299,101.220329 
	C262.539825,98.836784 256.723694,96.481728 250.964828,94.084724 
	C251.017868,94.053139 250.928055,94.140480 250.901489,93.791245 
	C242.434921,85.494499 231.482651,81.936989 221.453018,76.807220 
	C218.323471,75.206581 216.493408,77.327499 216.482666,81.008308 
	C216.414398,104.391747 216.193848,127.774742 216.136230,151.158173 
	C216.132599,152.631165 216.725281,154.990829 217.670364,155.370590 
	C219.040039,155.920944 221.297623,155.535248 222.632660,154.689957 
	C230.846786,149.488892 238.691574,143.658859 247.157440,138.930023 
	C249.565735,137.584808 253.946136,138.441986 256.872101,139.636520 
	C262.454224,141.915375 267.640747,145.163239 273.008057,148.378479 
	C274.046143,149.482224 275.067657,150.216354 276.089203,150.950485 
	C276.089203,150.950485 276.018585,150.972290 276.135834,151.175186 
	C276.535675,151.580322 276.818298,151.782578 277.100891,151.984818 
	C277.100891,151.984818 277.545197,152.041306 277.901093,152.296158 
	C278.486359,152.775818 278.758942,152.917511 279.074738,152.976074 
	C279.074738,152.976074 279.009613,152.994110 279.017029,153.326782 
	C280.555054,155.467224 281.809265,157.657806 283.673340,159.003876 
	C287.671844,161.891235 291.985138,164.342743 296.169525,166.972717 
	C296.491882,167.003128 296.737274,167.156616 297.069702,167.895172 
	C297.518250,168.563736 297.802734,168.770340 298.087219,168.976929 
	C298.087219,168.976929 298.016083,168.986115 298.019775,169.332458 
	C298.291992,172.779480 300.079041,174.085022 303.079651,173.955948 
	C303.079651,173.955948 303.011353,173.986832 303.066284,174.279160 
	C303.774750,175.034607 304.428284,175.497711 305.081818,175.960831 
	C305.081818,175.960831 305.013000,175.980606 305.132751,176.182129 
	C305.532898,176.582733 305.813263,176.781799 306.093658,176.980865 
	C306.093658,176.980865 306.528107,177.041122 306.761108,177.459595 
	C308.109955,181.397125 310.099579,183.891449 314.144562,183.975433 
	C314.422272,184.416702 314.700012,184.857986 315.111877,185.827332 
	C315.527557,186.562149 315.809082,186.768890 316.090637,186.975647 
	C316.090637,186.975647 316.018097,186.979599 316.130432,187.180298 
	C316.519867,187.581207 316.796936,187.781433 317.074036,187.981659 
	C317.074036,187.981659 317.007935,187.991364 317.057983,188.288940 
	C317.767334,189.044281 318.426636,189.502045 319.085968,189.959793 
	C319.085968,189.959793 319.017700,189.981628 319.131409,190.182709 
	C319.525665,190.581406 319.806183,190.779007 320.086731,190.976608 
	C320.086731,190.976608 320.015869,190.982895 320.064148,191.278809 
	C320.770081,192.036591 321.427765,192.498474 322.085480,192.960358 
	C322.085480,192.960342 322.017761,192.982925 322.133575,193.182709 
	C322.530334,193.579468 322.811279,193.776459 323.092224,193.973434 
	C323.092224,193.973434 323.019592,193.979126 323.023010,194.315201 
	C327.047241,199.086075 331.068024,203.520874 335.088806,207.955673 
	C335.088806,207.955673 335.020660,207.980362 335.133118,208.181854 
	C335.527252,208.580444 335.808929,208.777542 336.090637,208.974640 
	C336.090637,208.974640 336.018463,208.980896 336.132019,209.182129 
	C336.527161,209.580063 336.808777,209.776764 337.090363,209.973465 
	C337.090363,209.973465 337.016937,209.981979 337.020966,210.310928 
	C337.710541,211.414398 338.396057,212.188934 339.081573,212.963470 
	C339.081573,212.963470 339.014069,212.991760 339.018005,213.328827 
	C341.383484,216.423965 343.745056,219.182022 346.106628,221.940063 
	C346.106628,221.940063 346.031464,221.987183 346.029724,222.326660 
	C348.262909,228.811508 351.158478,234.479828 357.076263,237.965698 
	C357.076263,237.965698 357.010559,237.992523 357.017517,238.338654 
	C357.139374,239.329987 357.089264,240.068527 357.393677,240.606491 
	C362.794922,250.152298 368.198639,259.697388 373.718018,269.174988 
	C374.550720,270.604889 375.966187,271.695404 377.112091,272.942902 
	C377.112091,272.942902 377.037506,272.979706 377.029816,273.342712 
	C379.945862,281.343536 382.826904,288.998016 385.806305,296.614044 
	C388.340973,303.093201 390.988953,309.528015 393.943665,316.869202 
	C391.244324,316.394012 390.127686,316.197449 389.004456,316.000122 
	C388.997864,315.999359 388.999878,315.987305 389.003601,315.633698 
	C388.311096,314.540070 387.614838,313.800079 386.944336,313.025391 
	C386.970093,312.990692 386.934143,313.065979 386.959290,312.697021 
	C384.328064,307.090881 381.008331,302.565125 374.679138,300.988129 
	C374.200439,300.801971 374.010620,300.596985 373.836670,300.035339 
	C373.476318,299.526123 373.183350,299.296478 372.916626,299.093140 
	C372.942841,299.119476 372.876862,299.153625 372.862305,298.790222 
	C371.855743,297.998199 370.863739,297.569611 369.880920,297.083710 
	C369.890076,297.026367 369.911865,297.140411 369.816406,296.895416 
	C369.423584,296.483582 369.126282,296.316772 368.866577,296.171265 
	C368.904205,296.192627 368.831848,296.240051 368.756226,295.898438 
	C366.627228,292.134003 364.664764,288.651550 362.475311,285.318176 
	C361.612701,284.004913 360.243652,283.024323 359.078705,281.500916 
	C357.982178,278.181488 357.285889,275.041168 355.767914,272.367371 
	C352.083435,265.877472 348.382385,259.341248 344.030640,253.297043 
	C333.889526,239.211838 323.621002,225.200943 312.888275,211.565964 
	C306.844757,203.888229 299.961945,196.833923 293.080750,189.870834 
	C290.272766,187.029449 286.468048,185.173035 283.037323,182.536987 
	C273.929657,174.784271 265.091187,167.106186 255.702454,160.173325 
	C253.965652,158.890823 249.195953,159.575516 247.206100,161.124756 
	C234.705139,170.857712 221.870712,180.347748 210.547729,191.358948 
	C197.884003,203.674011 186.310791,217.190063 175.030609,230.818802 
	C168.116013,239.173035 162.397903,248.565887 156.593140,257.776337 
	C151.146942,266.417816 146.187515,275.374725 141.272568,284.334717 
	C140.337967,286.038513 140.611557,288.405060 140.290573,290.613831 
	C140.253448,290.761810 140.083267,291.015137 139.709808,291.008636 
	C138.225342,292.034088 137.114319,293.066071 135.877197,294.163910 
	C135.751083,294.229767 135.478622,294.147675 135.163147,294.209167 
	C134.584991,294.590424 134.322342,294.910187 133.896057,295.473297 
	C132.904785,296.182983 132.077118,296.649261 130.917191,297.098328 
	C130.093887,297.451263 129.602844,297.821411 129.096771,298.096985 
	C129.081741,298.002441 129.132904,298.188690 128.815994,298.154114 
	C128.062332,298.499786 127.625572,298.880005 127.163734,299.211792 
	C127.138649,299.163391 127.244545,299.189423 126.950424,299.285889 
	C126.452682,299.936493 126.249054,300.490662 126.023018,301.023010 
	C126.000610,301.001221 126.046265,301.047058 125.673065,301.028809 
	C124.279198,302.084473 123.258530,303.158447 122.198868,304.227234 
	C122.159866,304.222076 122.167435,304.143768 121.915619,304.218201 
	C121.486923,304.582489 121.310028,304.872314 121.167831,305.156128 
	C121.202515,305.150055 121.212738,305.219727 120.850235,305.182251 
	C119.093170,306.845337 117.698608,308.545868 116.268646,310.245728 
	C116.233246,310.245056 116.240097,310.174591 115.945587,310.281494 
	C115.469452,310.957184 115.287827,311.525940 115.059875,312.089539 
	C115.013557,312.084412 115.103874,312.068817 114.864212,312.165100 
	C114.447739,312.547607 114.270927,312.833832 114.053391,313.084229 
	C114.012657,313.048431 114.117226,313.077148 113.850449,313.224701 
	C113.438194,313.745026 113.292725,314.117828 113.194572,314.610443 
	C113.241898,314.730286 113.106941,314.949829 112.867722,315.077240 
	C112.446548,315.507782 112.264603,315.810913 112.114120,316.096741 
	C112.145584,316.079498 112.169693,316.147125 111.814919,316.132202 
	C110.949753,317.418121 110.439362,318.718933 109.873009,320.243774 
	C109.687988,320.751801 109.511086,321.002045 108.994537,321.311279 
	C108.417412,321.931183 108.132103,322.458344 107.543488,322.944489 
	C106.497231,322.574921 105.754280,322.246368 105.001450,321.692932 
	C104.991570,321.468079 104.998802,321.017975 105.000854,320.747040 
	C104.989220,320.295990 104.975540,320.115875 104.961868,319.935760 
	C104.961868,319.935760 104.984169,320.000580 105.310699,319.935669 
	C106.405952,318.477631 107.341064,317.149384 107.914375,315.679993 
	C110.309639,309.540894 112.622551,303.369141 114.912895,297.189819 
	C116.302910,293.439545 117.596443,289.653534 118.933319,285.883575 
	C118.933311,285.883575 118.942360,285.964539 119.269539,285.928497 
	C121.707367,281.226196 123.818016,276.559906 125.928665,271.893646 
	C125.928665,271.893646 125.957283,271.981659 126.323029,271.965393 
	C130.636673,271.093201 128.441559,267.997406 128.905029,265.870972 
	C128.905029,265.870972 128.932770,265.967041 129.257538,265.933960 
	C131.366959,263.154846 132.999023,260.293854 134.964966,257.684418 
	C140.748489,250.007904 140.469574,241.607544 138.172760,232.521820 
	C138.158463,231.073486 138.198181,230.017197 138.469696,228.628815 
	C138.540314,222.866043 138.379105,217.435394 138.173462,211.625824 
	C138.061218,210.486862 137.993393,209.726837 137.986938,209.003296 
	C138.048279,209.039780 138.187973,209.069214 138.420776,208.778503 
	C139.097198,202.624908 139.889435,196.764053 139.923782,190.898758 
	C140.068069,166.251205 139.936600,141.602051 140.073975,116.954430 
	C140.085739,114.842247 140.685440,111.912712 142.125946,110.782249 
	C146.532471,107.324081 151.391342,104.392952 156.309372,101.683578 
	C157.148132,101.221489 160.327255,102.737038 160.413300,103.551529 
	C160.930588,108.447762 160.960098,113.405815 160.970169,118.343552 
	C161.011658,138.661713 161.078354,158.980606 160.944000,179.297958 
	C160.888046,187.757935 160.179886,196.213989 160.143005,204.673447 
	C160.132370,207.109650 161.426987,209.551544 162.123169,211.990829 
	C162.123169,211.990829 162.020294,211.987808 162.100342,212.108170 
	C162.443909,212.122833 162.707428,212.017136 162.970932,211.911423 
	C162.970932,211.911423 162.982681,211.982712 163.300293,211.915619 
	C164.057999,210.864578 164.498093,209.880646 164.938187,208.896713 
	C164.938187,208.896713 164.961731,208.968842 165.177444,208.855591 
	C165.589157,208.434311 165.785141,208.126266 165.981125,207.818222 
	C166.003632,207.494247 166.154587,207.249512 167.005188,207.000381 
	C169.026138,205.227600 170.475906,203.538467 172.017853,201.646423 
	C172.293625,201.193146 172.535599,201.028748 173.197235,200.921631 
	C174.000244,200.140427 174.442001,199.387894 175.026703,198.345169 
	C177.743881,195.085205 180.434357,192.206406 182.853394,189.115204 
	C184.604553,186.877441 185.995544,184.357834 187.699005,181.669220 
	C187.879547,181.155960 187.908234,180.937393 188.140167,180.792786 
	C188.343445,180.866730 188.761993,180.968948 189.153381,180.984619 
	C194.278610,179.914154 195.021423,176.348160 195.019470,172.270813 
	C195.005478,143.105560 194.977615,113.940231 195.045395,84.775139 
	C195.052261,81.816055 195.663147,78.858368 195.993744,75.900032 
	C201.649948,72.280426 206.977524,67.808235 213.116806,65.441986 
	C215.737305,64.431976 220.196976,67.534912 223.567337,69.263306 
	C231.104538,73.128510 238.488800,77.292770 245.912857,81.376099 
	C246.465149,81.679863 246.838028,82.309807 247.756027,83.164368 
	C248.463074,83.775200 248.752579,83.923508 249.086258,83.985550 
	C249.086258,83.985550 249.007568,83.990753 249.126526,84.184402 
	C249.521805,84.585281 249.798141,84.792503 250.074463,84.999725 
	C250.074463,84.999733 250.518997,85.053337 250.851791,85.462578 
	C252.514694,86.247543 253.844788,86.623268 255.174896,86.999001 
	C255.174896,86.999001 255.566895,87.017014 255.898682,87.275696 
	C256.477631,87.773926 256.771240,87.920151 257.111328,87.973061 
	C257.111328,87.973061 257.025299,87.953041 257.064087,88.292435 
	C258.799377,89.421013 260.495850,90.210205 262.192322,90.999405 
z"/>
<path fill="#2C6587" opacity="1.000000" stroke="none" 
	d="
M265.792603,413.079437 
	C265.509583,413.001251 265.281708,412.843475 265.060120,412.109436 
	C265.033936,411.408691 265.056519,411.204651 265.223083,410.898315 
	C265.250824,410.526611 265.134583,410.257202 265.010376,409.993896 
	C265.002441,410.000000 265.011383,409.986938 264.896942,409.773376 
	C264.582855,409.292938 264.326416,409.102539 264.007446,408.993225 
	C264.001678,408.997803 264.017487,408.985138 264.009460,408.616394 
	C259.459320,400.694763 254.999176,393.088745 250.209106,385.696533 
	C249.852219,385.145782 246.243729,385.560669 245.651428,386.487793 
	C241.601410,392.827576 238.320755,399.677704 234.056351,405.855469 
	C230.843231,410.510315 227.141937,415.289581 222.572311,418.437531 
	C215.877853,423.049133 208.288254,426.405273 200.943314,430.018341 
	C190.179321,435.313293 178.613358,436.008575 167.037567,434.362885 
	C159.261948,433.257385 151.677322,430.808594 143.839752,428.661377 
	C140.177643,425.948090 136.877213,423.168396 133.151230,421.190369 
	C122.839638,415.716187 116.084442,406.580872 110.832245,397.008728 
	C101.225006,379.499420 97.040825,360.695251 104.096260,340.857849 
	C104.392929,340.023712 104.039635,338.958374 103.989777,337.623291 
	C103.951317,336.741577 103.912216,336.237335 103.864883,335.566376 
	C103.856651,335.399628 103.935234,335.075134 104.202393,334.850891 
	C104.629105,333.738007 104.788673,332.849304 104.973053,331.979706 
	C104.997864,331.998779 104.955391,331.952972 105.312241,331.904724 
	C106.409515,329.867615 107.149956,327.878723 107.918510,325.951233 
	C107.946632,326.012604 107.873833,325.895508 108.233749,325.865387 
	C112.683289,320.428864 116.308174,314.577789 120.963249,309.712402 
	C129.568680,300.718140 139.799149,293.989471 151.592361,289.545593 
	C163.162827,285.185730 174.986282,285.781006 186.912720,286.423950 
	C188.934250,286.532898 190.984192,286.115234 193.343323,286.009277 
	C194.102264,286.128021 194.538895,286.178284 195.060211,286.549255 
	C196.334076,287.721527 197.703293,288.406342 198.676941,289.457550 
	C201.092972,292.065979 203.935410,294.625336 201.914307,298.820343 
	C200.114685,302.555634 197.497330,303.255280 193.359329,302.475128 
	C187.600479,301.389343 181.627014,301.453400 175.748154,300.990479 
	C160.635376,299.800415 147.823074,305.587708 136.304016,314.554932 
	C130.571213,319.017792 125.535782,324.372742 123.640900,332.047394 
	C122.150032,334.340759 120.986794,336.560547 119.903336,338.818634 
	C114.864914,349.319489 114.465271,360.396118 116.827316,371.473907 
	C118.043327,377.176819 120.903366,382.514282 122.817574,388.086609 
	C126.184395,397.887482 134.116867,403.634583 141.758316,409.621582 
	C142.509796,410.210297 144.001190,409.854645 145.392166,410.069611 
	C146.091110,410.497894 146.547028,410.793884 147.204010,411.307739 
	C147.971863,411.656311 148.538620,411.787079 149.056061,411.929626 
	C149.006714,411.941437 149.081345,411.872711 149.119751,412.239197 
	C151.119858,413.399841 153.081573,414.194031 155.276855,415.041992 
	C155.510437,415.095734 155.975113,415.213562 156.076508,415.549072 
	C163.367661,419.970520 171.369110,420.571075 179.322113,420.754333 
	C181.859085,420.812836 184.439865,418.971069 187.208389,417.900726 
	C187.678589,417.630188 187.882248,417.404602 188.353073,417.092712 
	C189.115021,417.034821 189.551041,417.010162 190.244751,417.249756 
	C191.303009,417.622192 192.137604,417.935059 192.899200,417.808563 
	C211.128036,414.780945 220.037415,400.646515 228.832474,386.835175 
	C232.218781,381.517487 233.680405,374.974121 236.297882,368.951721 
	C236.709167,368.281677 236.841537,367.649170 236.980713,366.683441 
	C236.991928,365.906189 236.996323,365.462097 237.265717,364.798828 
	C238.623779,362.720734 239.887848,360.940247 240.782013,358.990204 
	C246.342712,346.863098 251.093094,334.290710 257.587982,322.692383 
	C261.742401,315.273621 267.519043,308.109253 274.180176,302.886414 
	C287.454163,292.478546 302.450470,285.672913 320.128113,285.879761 
	C336.486176,286.071198 351.969604,288.307831 365.707977,298.019104 
	C369.382416,300.616455 373.571075,302.486420 377.646698,304.732727 
	C377.769714,304.775116 377.973602,304.936737 377.978882,305.305176 
	C378.546082,306.831635 378.838043,308.275177 379.712799,309.102356 
	C386.472626,315.494324 391.109375,323.241028 394.522369,331.790253 
	C396.402954,336.500946 398.186218,341.250458 400.120270,346.203979 
	C400.422028,346.700012 400.672638,346.906982 400.979370,347.368652 
	C400.986786,348.120148 400.993866,348.549408 400.995636,349.448547 
	C400.994385,355.074951 401.834320,360.402405 400.822449,365.351227 
	C398.919098,374.660034 397.301544,384.440063 393.068665,392.752991 
	C388.033020,402.642456 381.318542,411.981598 371.790283,418.607208 
	C370.630859,419.413422 369.895386,420.829376 368.588867,421.978882 
	C367.116119,422.343658 365.939758,422.541443 364.931793,423.063965 
	C354.266724,428.592651 343.575775,433.559662 331.204376,434.592041 
	C315.736420,435.882812 301.250763,433.488586 287.773346,425.885498 
	C281.335602,422.253723 275.262939,417.974823 269.011108,413.661224 
	C268.244507,409.268860 266.887878,412.822632 265.792603,413.079437 
M284.542328,405.406433 
	C284.622559,405.849976 284.542755,406.515686 284.805908,406.705231 
	C297.993164,416.202118 312.616669,421.737518 328.932770,419.752228 
	C336.782837,418.797058 344.327209,415.329742 352.672089,412.706848 
	C367.000183,408.178131 385.201569,385.106537 383.992432,366.976807 
	C383.960571,361.668762 383.928741,356.360687 384.449951,350.546692 
	C384.491669,349.432190 384.898895,348.168701 384.515320,347.227539 
	C382.168274,341.469055 380.087677,335.535706 377.079285,330.127289 
	C371.427338,319.966431 363.608398,312.088043 352.789307,306.906555 
	C341.567139,301.532013 329.961578,300.674072 317.916443,300.943878 
	C304.896667,301.235535 294.265869,307.082581 284.051300,314.370941 
	C277.637543,318.947327 273.631500,325.273346 269.250519,332.100555 
	C268.560059,332.750153 267.391479,333.310730 267.251465,334.062836 
	C265.406464,343.970978 261.671417,353.231171 262.536621,364.011444 
	C263.645782,377.832092 268.672150,389.068268 277.243164,399.260468 
	C278.049133,400.218903 279.745819,400.428314 280.998566,401.002472 
	C280.998566,401.002472 281.007294,400.968719 281.223724,401.416565 
	C281.423523,401.696014 281.685730,401.891998 282.462952,402.184753 
	C282.748169,402.376312 282.926086,402.640228 283.235809,403.426758 
	C283.513397,403.615112 283.791016,403.803467 284.512634,404.072937 
	C284.512634,404.072937 284.956879,404.152679 284.975677,404.568848 
	C284.975677,404.568848 284.971222,404.987244 284.542328,405.406433 
z"/>
<path fill="#C2A46E" opacity="1.000000" stroke="none" 
	d="
M272.991486,148.008850 
	C267.640747,145.163239 262.454224,141.915375 256.872101,139.636520 
	C253.946136,138.441986 249.565735,137.584808 247.157440,138.930023 
	C238.691574,143.658859 230.846786,149.488892 222.632660,154.689957 
	C221.297623,155.535248 219.040039,155.920944 217.670364,155.370590 
	C216.725281,154.990829 216.132599,152.631165 216.136230,151.158173 
	C216.193848,127.774742 216.414398,104.391747 216.482666,81.008308 
	C216.493408,77.327499 218.323471,75.206581 221.453018,76.807220 
	C231.482651,81.936989 242.434921,85.494499 250.523254,93.754456 
	C242.161606,89.969231 234.177536,85.819565 226.125015,81.807228 
	C223.864441,80.680847 221.402725,79.958191 218.714188,79.316376 
	C218.284271,98.797707 218.166565,118.012985 218.095764,137.228424 
	C218.093643,137.805649 218.582642,138.384659 218.905121,139.426788 
	C218.967575,144.335983 218.967575,148.781204 218.967575,153.911819 
	C228.216965,147.985291 236.989624,142.381470 245.742325,136.746643 
	C248.807800,134.773148 251.598404,133.956070 255.128204,136.330643 
	C259.442383,139.232864 264.240173,141.416199 269.125793,144.005890 
	C269.587189,131.466202 269.758850,118.831100 269.882172,106.195541 
	C269.886017,105.801956 269.389954,105.403496 268.971802,104.683647 
	C266.591095,103.109825 264.356201,101.875916 262.142029,100.605881 
	C258.391724,98.454720 254.654510,96.280708 250.911789,94.116310 
	C256.723694,96.481728 262.539825,98.836784 268.344299,101.220329 
	C269.678314,101.768127 270.972137,102.413742 272.657349,103.486420 
	C273.028198,113.443199 272.945923,122.929253 273.105072,132.411255 
	C273.130798,133.943161 274.230255,135.457031 274.833374,136.979248 
	C274.626312,139.082138 274.419281,141.185028 273.806335,143.909012 
	C273.280701,145.673248 273.161011,146.816376 273.028870,147.971741 
	C273.016418,147.983978 272.991486,148.008850 272.991486,148.008850 
z"/>
<path fill="#3A5C73" opacity="1.000000" stroke="none" 
	d="
M144.007233,428.960815 
	C151.677322,430.808594 159.261948,433.257385 167.037567,434.362885 
	C178.613358,436.008575 190.179321,435.313293 200.943314,430.018341 
	C208.288254,426.405273 215.877853,423.049133 222.572311,418.437531 
	C227.141937,415.289581 230.843231,410.510315 234.056351,405.855469 
	C238.320755,399.677704 241.601410,392.827576 245.651428,386.487793 
	C246.243729,385.560669 249.852219,385.145782 250.209106,385.696533 
	C254.999176,393.088745 259.459320,400.694763 263.729034,408.500458 
	C262.897095,408.525604 262.337524,408.297943 261.777985,408.070312 
	C257.234039,401.473145 252.690125,394.876007 248.171219,388.315186 
	C243.787125,398.311249 238.008423,408.080780 229.578323,415.911987 
	C215.520615,428.971039 199.259506,436.963348 179.595047,436.989960 
	C169.386826,437.003754 159.212860,437.235474 149.587830,433.032684 
	C147.976562,432.329163 146.357941,431.642487 144.368866,430.571533 
	C143.999069,429.783661 144.003159,429.372223 144.007233,428.960815 
z"/>
<path fill="#C4A877" opacity="1.000000" stroke="none" 
	d="
M162.073944,211.523254 
	C161.426987,209.551544 160.132370,207.109650 160.143005,204.673447 
	C160.179886,196.213989 160.888046,187.757935 160.944000,179.297958 
	C161.078354,158.980606 161.011658,138.661713 160.970169,118.343552 
	C160.960098,113.405815 160.930588,108.447762 160.413300,103.551529 
	C160.327255,102.737038 157.148132,101.221489 156.309372,101.683578 
	C151.391342,104.392952 146.532471,107.324081 142.125946,110.782249 
	C140.685440,111.912712 140.085739,114.842247 140.073975,116.954430 
	C139.936600,141.602051 140.068069,166.251205 139.923782,190.898758 
	C139.889435,196.764053 139.097198,202.624908 138.362762,208.306824 
	C138.038437,182.191864 138.020508,156.257812 137.936661,130.323975 
	C137.931015,128.576736 137.427719,126.831100 137.155884,125.084717 
	C136.469574,110.299187 136.476547,110.311882 149.302155,103.270096 
	C151.729477,101.937386 154.081787,100.467392 156.460281,99.046608 
	C160.061066,96.895691 161.961578,97.887802 161.983536,102.075043 
	C162.029816,110.899902 161.980164,119.725235 161.980682,128.550369 
	C161.981659,145.546082 161.987869,162.541779 161.996353,179.537491 
	C162.001587,190.043549 162.014999,200.549622 162.073944,211.523254 
z"/>
<path fill="#416070" opacity="1.000000" stroke="none" 
	d="
M187.547150,181.963928 
	C185.995544,184.357834 184.604553,186.877441 182.853394,189.115204 
	C180.434357,192.206406 177.743881,195.085205 174.757935,198.516785 
	C173.842804,199.635849 173.339386,200.293091 172.835968,200.950333 
	C172.535599,201.028748 172.293625,201.193146 171.796539,201.527466 
	C171.290680,201.333374 171.098312,201.055359 170.918518,200.322891 
	C170.951263,162.547928 170.971436,125.227417 170.991608,87.906906 
	C175.857407,84.090889 181.472321,82.132935 188.063354,80.469261 
	C189.607483,91.493042 189.563950,101.774384 187.663010,112.181396 
	C187.229233,107.861374 187.203033,103.434212 186.973557,99.017616 
	C186.764587,94.995613 186.334976,90.985077 185.914337,86.615250 
	C180.322540,83.596825 173.023621,88.096390 173.013351,94.266083 
	C172.972046,119.079857 173.015396,143.893799 172.950790,168.707474 
	C172.943481,171.505630 172.270172,174.299255 172.219009,177.100708 
	C172.103027,183.451508 172.182526,189.805878 172.182526,197.548889 
	C177.430557,191.629456 181.698380,186.815643 186.230957,182.000854 
	C186.846207,181.987900 187.196671,181.975906 187.547150,181.963928 
M184.486404,83.570404 
	C184.486404,83.570404 184.434814,83.478859 184.486404,83.570404 
z"/>
<path fill="#3C5D74" opacity="1.000000" stroke="none" 
	d="
M269.024933,413.989014 
	C275.262939,417.974823 281.335602,422.253723 287.773346,425.885498 
	C301.250763,433.488586 315.736420,435.882812 331.204376,434.592041 
	C343.575775,433.559662 354.266724,428.592651 364.931793,423.063965 
	C365.939758,422.541443 367.116119,422.343658 368.619690,422.296814 
	C369.048920,422.809937 369.072723,423.021240 369.096558,423.232544 
	C365.862488,425.488190 362.877075,428.285278 359.350769,429.904449 
	C345.154297,436.423004 330.109283,438.065369 314.657440,436.776337 
	C296.099152,435.228119 280.373108,427.597137 267.300507,414.358154 
	C268.007965,414.021912 268.516449,414.005463 269.024933,413.989014 
z"/>
<path fill="#406277" opacity="1.000000" stroke="none" 
	d="
M143.839752,428.661377 
	C144.003159,429.372223 143.999069,429.783661 143.992737,430.502838 
	C130.667679,425.204041 120.198349,416.206207 112.030190,404.327576 
	C104.636871,393.575806 100.291710,381.567108 98.736740,368.842651 
	C97.759949,360.849426 98.984779,352.587128 99.862732,343.986511 
	C100.664062,341.956055 100.824524,340.384613 100.985001,338.813171 
	C100.985001,338.813171 100.983429,338.377136 101.331970,338.178009 
	C102.044067,337.953644 102.407608,337.928436 103.075096,337.934509 
	C103.582405,337.977478 103.785774,337.989136 103.989136,338.000763 
	C104.039635,338.958374 104.392929,340.023712 104.096260,340.857849 
	C97.040825,360.695251 101.225006,379.499420 110.832245,397.008728 
	C116.084442,406.580872 122.839638,415.716187 133.151230,421.190369 
	C136.877213,423.168396 140.177643,425.948090 143.839752,428.661377 
z"/>
<path fill="#3A5C73" opacity="1.000000" stroke="none" 
	d="
M369.434387,423.113098 
	C369.072723,423.021240 369.048920,422.809937 368.994263,422.280670 
	C369.895386,420.829376 370.630859,419.413422 371.790283,418.607208 
	C381.318542,411.981598 388.033020,402.642456 393.068665,392.752991 
	C397.301544,384.440063 398.919098,374.660034 400.822449,365.351227 
	C401.834320,360.402405 400.994385,355.074951 401.288269,349.452148 
	C401.976074,348.986420 402.365936,348.986969 402.755798,348.987549 
	C406.313660,364.114685 402.808105,378.647522 396.685242,392.035278 
	C390.929443,404.620453 382.759216,416.177826 369.434387,423.113098 
z"/>
<path fill="#33586D" opacity="1.000000" stroke="none" 
	d="
M186.002625,86.969482 
	C186.334976,90.985077 186.764587,94.995613 186.973557,99.017616 
	C187.203033,103.434212 187.229233,107.861374 187.594635,112.602325 
	C188.247345,120.669083 189.011215,128.419235 188.972839,136.165421 
	C188.902374,150.391434 188.359268,164.615097 188.008118,179.534531 
	C188.003021,180.229324 187.936905,180.718842 187.936905,180.718842 
	C187.908234,180.937393 187.879547,181.155960 187.699005,181.669220 
	C187.196671,181.975906 186.846207,181.987900 186.237030,181.531830 
	C185.986450,149.699020 185.994537,118.334251 186.002625,86.969482 
z"/>
<path fill="#C2A46E" opacity="1.000000" stroke="none" 
	d="
M389.011078,316.000885 
	C390.127686,316.197449 391.244324,316.394012 393.943665,316.869202 
	C390.988953,309.528015 388.340973,303.093201 385.806305,296.614044 
	C382.826904,288.998016 379.945862,281.343536 377.041107,273.302673 
	C380.235413,278.961945 383.975525,284.802887 386.457947,291.136749 
	C390.508118,301.470764 393.787231,312.109985 397.276459,322.658539 
	C398.078949,325.084534 398.414246,327.665039 398.673615,330.610291 
	C395.258820,326.031067 392.134949,321.015961 389.011078,316.000885 
z"/>
<path fill="#426375" opacity="1.000000" stroke="none" 
	d="
M389.004456,316.000122 
	C392.134949,321.015961 395.258820,326.031067 398.755859,331.014771 
	C399.128998,330.983368 399.051910,331.003479 398.960968,331.283447 
	C399.225983,332.035675 399.581970,332.507935 399.937927,332.980164 
	C400.911652,338.054901 401.885376,343.129639 402.807434,348.595947 
	C402.365936,348.986969 401.976074,348.986420 401.293579,348.982239 
	C400.993866,348.549408 400.986786,348.120148 400.874420,347.144958 
	C400.577087,346.320129 400.325165,346.114624 400.013367,345.982483 
	C398.186218,341.250458 396.402954,336.500946 394.522369,331.790253 
	C391.109375,323.241028 386.472626,315.494324 379.712799,309.102356 
	C378.838043,308.275177 378.546082,306.831635 378.296844,305.427856 
	C381.384399,307.810089 384.159271,310.438019 386.934143,313.065979 
	C386.934143,313.065979 386.970093,312.990692 386.970337,313.342010 
	C387.646973,314.458008 388.323425,315.222656 388.999878,315.987305 
	C388.999878,315.987305 388.997864,315.999359 389.004456,316.000122 
z"/>
<path fill="#C9AF85" opacity="1.000000" stroke="none" 
	d="
M195.553589,75.951752 
	C195.663147,78.858368 195.052261,81.816055 195.045395,84.775139 
	C194.977615,113.940231 195.005478,143.105560 195.019470,172.270813 
	C195.021423,176.348160 194.278610,179.914154 189.151550,180.718414 
	C188.768448,180.259308 188.778580,180.082062 188.788696,179.904831 
	C193.540268,176.407181 194.163895,171.650040 194.112808,166.019806 
	C193.852051,137.283142 193.995239,108.542641 194.066299,79.803658 
	C194.069443,78.536072 194.748978,77.270157 195.553589,75.951752 
z"/>
<path fill="#A6B8C5" opacity="1.000000" stroke="none" 
	d="
M170.604950,88.120613 
	C170.971436,125.227417 170.951263,162.547928 170.734741,200.406342 
	C170.538391,200.944260 170.141464,201.010376 170.141464,201.010376 
	C170.167068,163.451691 170.192673,125.893005 170.604950,88.120613 
z"/>
<path fill="#C9AF85" opacity="1.000000" stroke="none" 
	d="
M274.900330,136.516388 
	C274.230255,135.457031 273.130798,133.943161 273.105072,132.411255 
	C272.945923,122.929253 273.028198,113.443199 273.031494,103.492912 
	C271.063843,100.211021 269.094971,97.394722 267.080566,94.236229 
	C272.110199,95.010727 274.401825,97.448051 274.190979,103.343117 
	C273.801849,114.223427 274.640289,125.147629 274.900330,136.516388 
z"/>
<path fill="#FEFCB9" opacity="1.000000" stroke="none" 
	d="
M137.087006,125.543274 
	C137.427719,126.831100 137.931015,128.576736 137.936661,130.323975 
	C138.020508,156.257812 138.038437,182.191864 138.129974,208.597534 
	C138.187973,209.069214 138.048279,209.039780 137.798141,209.004730 
	C137.548004,208.969696 137.170120,208.966034 137.170120,208.966034 
	C137.119461,181.311295 137.068802,153.656570 137.087006,125.543274 
z"/>
<path fill="#C2A46E" opacity="1.000000" stroke="none" 
	d="
M377.052643,272.569641 
	C375.966187,271.695404 374.550720,270.604889 373.718018,269.174988 
	C368.198639,259.697388 362.794922,250.152298 357.393677,240.606491 
	C357.089264,240.068527 357.139374,239.329987 357.030945,238.305817 
	C359.766937,241.833435 362.818634,245.557678 365.155304,249.686584 
	C369.328766,257.061127 373.070770,264.679779 377.052643,272.569641 
z"/>
<path fill="#C4A877" opacity="1.000000" stroke="none" 
	d="
M118.594635,286.013000 
	C117.596443,289.653534 116.302910,293.439545 114.912895,297.189819 
	C112.622551,303.369141 110.309639,309.540894 107.914375,315.679993 
	C107.341064,317.149384 106.405952,318.477631 105.279770,319.920898 
	C109.366844,308.694824 113.811394,297.418610 118.594635,286.013000 
z"/>
<path fill="#C4A877" opacity="1.000000" stroke="none" 
	d="
M138.226776,232.913879 
	C140.469574,241.607544 140.748489,250.007904 134.964966,257.684418 
	C132.999023,260.293854 131.366959,263.154846 129.216431,265.905518 
	C131.554962,260.513672 134.259384,255.117203 137.339966,249.059631 
	C137.886322,243.237000 138.056549,238.075439 138.226776,232.913879 
z"/>
<path fill="#C2A46E" opacity="1.000000" stroke="none" 
	d="
M296.042542,166.651276 
	C291.985138,164.342743 287.671844,161.891235 283.673340,159.003876 
	C281.809265,157.657806 280.555054,155.467224 279.029663,153.295441 
	C284.661804,157.397568 290.288696,161.863693 296.042542,166.651276 
z"/>
<path fill="#C2A46E" opacity="1.000000" stroke="none" 
	d="
M357.034851,237.604736 
	C351.158478,234.479828 348.262909,228.811508 346.045807,222.285309 
	C349.706879,227.017578 353.350128,232.130676 357.034851,237.604736 
z"/>
<path fill="#FFE1C9" opacity="1.000000" stroke="none" 
	d="
M138.172760,232.521820 
	C138.056549,238.075439 137.886322,243.237000 137.423431,248.697540 
	C137.096298,235.964706 137.061844,222.932861 137.098755,209.433533 
	C137.170120,208.966034 137.548004,208.969696 137.736786,208.968246 
	C137.993393,209.726837 138.061218,210.486862 138.107269,212.088745 
	C138.136292,218.274033 138.187103,223.617462 138.237900,228.960907 
	C138.198181,230.017197 138.158463,231.073486 138.172760,232.521820 
z"/>
<path fill="#C2A46E" opacity="1.000000" stroke="none" 
	d="
M335.054626,207.597839 
	C331.068024,203.520874 327.047241,199.086075 323.036072,194.281174 
	C327.037262,198.354050 331.028870,202.797028 335.054626,207.597839 
z"/>
<path fill="#C4A877" opacity="1.000000" stroke="none" 
	d="
M125.594528,272.023804 
	C123.818016,276.559906 121.707367,281.226196 119.231712,285.913391 
	C120.997940,281.340851 123.129166,276.747375 125.594528,272.023804 
z"/>
<path fill="#C4A877" opacity="1.000000" stroke="none" 
	d="
M105.011322,321.917816 
	C105.754280,322.246368 106.497231,322.574921 107.599739,323.184631 
	C107.959297,323.465759 108.078728,323.943542 108.016907,324.266968 
	C107.927994,325.025421 107.900909,325.460449 107.873825,325.895508 
	C107.873833,325.895508 107.946632,326.012604 107.559853,326.003265 
	C106.433846,327.980286 105.694618,329.966614 104.955383,331.952972 
	C104.955391,331.952972 104.997864,331.998779 104.728058,332.001678 
	C104.458252,332.004578 104.017799,332.224396 103.915977,331.925903 
	C103.249878,330.754913 102.685593,329.882446 102.121323,329.009979 
	C102.497765,327.444336 102.874207,325.878723 103.804413,323.957458 
	C104.575897,323.040527 104.793610,322.479156 105.011322,321.917816 
z"/>
<path fill="#C2A46E" opacity="1.000000" stroke="none" 
	d="
M346.076477,221.579926 
	C343.745056,219.182022 341.383484,216.423965 339.031677,213.294891 
	C341.376404,215.689163 343.711365,218.454453 346.076477,221.579926 
z"/>
<path fill="#8E8E85" opacity="1.000000" stroke="none" 
	d="
M102.027527,329.409088 
	C102.685593,329.882446 103.249878,330.754913 103.928436,332.278046 
	C104.006882,333.644196 103.971062,334.359650 103.935234,335.075134 
	C103.935234,335.075134 103.856651,335.399628 103.637520,335.784119 
	C103.202644,336.746796 102.986893,337.325012 102.771149,337.903229 
	C102.407608,337.928436 102.044067,337.953644 101.407326,337.973389 
	C101.400665,335.248016 101.667198,332.528107 102.027527,329.409088 
z"/>
<path fill="#C2A46E" opacity="1.000000" stroke="none" 
	d="
M314.020081,183.659180 
	C310.099579,183.891449 308.109955,181.397125 306.971619,177.521149 
	C309.264557,179.223816 311.580078,181.283386 314.020081,183.659180 
z"/>
<path fill="#C4A877" opacity="1.000000" stroke="none" 
	d="
M169.993835,201.325745 
	C170.141464,201.010376 170.538391,200.944260 170.722168,200.860809 
	C171.098312,201.055359 171.290680,201.333374 171.704361,201.730377 
	C170.475906,203.538467 169.026138,205.227600 167.221619,206.946808 
	C167.859985,205.198303 168.853088,203.419708 169.993835,201.325745 
z"/>
<path fill="#C2A46E" opacity="1.000000" stroke="none" 
	d="
M302.955078,173.651810 
	C300.079041,174.085022 298.291992,172.779480 298.034790,169.299866 
	C299.640869,170.396530 301.235718,171.872101 302.955078,173.651810 
z"/>
<path fill="#C4A877" opacity="1.000000" stroke="none" 
	d="
M128.580170,266.014587 
	C128.441559,267.997406 130.636673,271.093201 126.284714,271.939453 
	C126.672203,270.005920 127.463760,268.082031 128.580170,266.014587 
z"/>
<path fill="#C9AF85" opacity="1.000000" stroke="none" 
	d="
M262.033752,90.678757 
	C260.495850,90.210205 258.799377,89.421013 257.078583,88.250710 
	C258.661224,88.699104 260.268188,89.528603 262.033752,90.678757 
z"/>
<path fill="#3A5C73" opacity="1.000000" stroke="none" 
	d="
M269.011108,413.661224 
	C268.516449,414.005463 268.007965,414.021912 267.118774,414.066528 
	C266.416321,413.997192 266.168243,413.804688 265.893250,413.298340 
	C266.887878,412.822632 268.244507,409.268860 269.011108,413.661224 
z"/>
<path fill="#3C5D74" opacity="1.000000" stroke="none" 
	d="
M261.850281,408.401733 
	C262.337524,408.297943 262.897095,408.525604 263.737061,408.869202 
	C264.017487,408.985138 264.001678,408.997803 264.121277,409.207245 
	C264.440979,409.683380 264.697845,409.873474 265.011383,409.986938 
	C265.011383,409.986938 265.002441,410.000000 265.016846,410.247650 
	C265.047180,410.663727 265.063171,410.832184 265.079132,411.000610 
	C265.056519,411.204651 265.033936,411.408691 264.970612,411.918396 
	C263.927460,411.060425 262.925049,409.896790 261.850281,408.401733 
z"/>
<path fill="#C9AF85" opacity="1.000000" stroke="none" 
	d="
M266.955017,93.627167 
	C265.828674,93.472473 264.560547,92.987648 263.144348,92.175354 
	C264.268585,92.330940 265.540894,92.813995 266.955017,93.627167 
z"/>
<path fill="#C2A46E" opacity="1.000000" stroke="none" 
	d="
M275.988373,150.650787 
	C275.067657,150.216354 274.046143,149.482224 273.008057,148.378479 
	C272.991486,148.008850 273.016418,147.983978 273.233429,147.985443 
	C273.450439,147.986923 273.861389,147.985748 273.861389,147.985748 
	C274.536774,148.774200 275.212158,149.562637 275.988373,150.650787 
z"/>
<path fill="#C9AF85" opacity="1.000000" stroke="none" 
	d="
M255.017990,86.672791 
	C253.844788,86.623268 252.514694,86.247543 251.063873,85.534279 
	C252.249146,85.580025 253.555115,85.963303 255.017990,86.672791 
z"/>
<path fill="#8E8E85" opacity="1.000000" stroke="none" 
	d="
M100.667679,339.049988 
	C100.824524,340.384613 100.664062,341.956055 100.178940,343.745331 
	C100.019653,342.404388 100.185013,340.845581 100.667679,339.049988 
z"/>
<path fill="#C2A46E" opacity="1.000000" stroke="none" 
	d="
M339.046570,212.634705 
	C338.396057,212.188934 337.710541,211.414398 337.038818,210.278564 
	C337.705627,210.713486 338.358612,211.509705 339.046570,212.634705 
z"/>
<path fill="#C4A877" opacity="1.000000" stroke="none" 
	d="
M164.647034,209.031921 
	C164.498093,209.880646 164.057999,210.864578 163.266235,211.903549 
	C163.395004,211.028091 163.875443,210.097595 164.647034,209.031921 
z"/>
<path fill="#C9AF85" opacity="1.000000" stroke="none" 
	d="
M273.938690,147.594482 
	C273.861389,147.985748 273.450439,147.986923 273.245880,147.973221 
	C273.161011,146.816376 273.280701,145.673248 273.635315,144.275787 
	C273.918823,145.082062 273.967407,146.142624 273.938690,147.594482 
z"/>
<path fill="#C2A46E" opacity="1.000000" stroke="none" 
	d="
M322.039948,192.617157 
	C321.427765,192.498474 320.770081,192.036591 320.075531,191.245117 
	C320.690582,191.368332 321.342499,191.821136 322.039948,192.617157 
z"/>
<path fill="#C2A46E" opacity="1.000000" stroke="none" 
	d="
M305.043335,175.614655 
	C304.428284,175.497711 303.774750,175.034607 303.080017,174.244293 
	C303.694183,174.367569 304.349548,174.818024 305.043335,175.614655 
z"/>
<path fill="#C2A46E" opacity="1.000000" stroke="none" 
	d="
M319.045990,189.613373 
	C318.426636,189.502045 317.767334,189.044281 317.069214,188.257492 
	C317.688965,188.374634 318.347504,188.820786 319.045990,189.613373 
z"/>
<path fill="#8E8E85" opacity="1.000000" stroke="none" 
	d="
M105.001450,321.692932 
	C104.793610,322.479156 104.575897,323.040527 104.100365,323.760498 
	C103.870621,323.181305 103.898697,322.443481 104.238342,321.363373 
	C104.549911,321.021057 104.998802,321.017975 104.998802,321.017975 
	C104.998802,321.017975 104.991570,321.468079 105.001450,321.692932 
z"/>
<path fill="#C2A46E" opacity="1.000000" stroke="none" 
	d="
M399.955780,332.664032 
	C399.581970,332.507935 399.225983,332.035675 398.951111,331.244873 
	C399.346008,331.400146 399.659821,331.874023 399.955780,332.664032 
z"/>
<path fill="#C9AF85" opacity="1.000000" stroke="none" 
	d="
M257.036926,87.690735 
	C256.771240,87.920151 256.477631,87.773926 256.087311,87.329773 
	C256.283600,87.219574 256.623047,87.313988 257.036926,87.690735 
z"/>
<path fill="#C9AF85" opacity="1.000000" stroke="none" 
	d="
M249.986816,84.742447 
	C249.798141,84.792503 249.521805,84.585281 249.125153,84.144997 
	C249.302948,84.103012 249.601059,84.294083 249.986816,84.742447 
z"/>
<path fill="#C9AF85" opacity="1.000000" stroke="none" 
	d="
M249.011276,83.706665 
	C248.752579,83.923508 248.463074,83.775200 248.071777,83.340599 
	C248.262634,83.236305 248.599472,83.332039 249.011276,83.706665 
z"/>
<path fill="#C2A46E" opacity="1.000000" stroke="none" 
	d="
M298.005615,168.713257 
	C297.802734,168.770340 297.518250,168.563736 297.125000,168.112030 
	C297.318817,168.061157 297.621399,168.255371 298.005615,168.713257 
z"/>
<path fill="#C2A46E" opacity="1.000000" stroke="none" 
	d="
M316.010498,186.712341 
	C315.809082,186.768890 315.527557,186.562149 315.135437,186.113434 
	C315.326691,186.064011 315.628540,186.256531 316.010498,186.712341 
z"/>
<path fill="#C2A46E" opacity="1.000000" stroke="none" 
	d="
M316.997375,187.722000 
	C316.796936,187.781433 316.519867,187.581207 316.133972,187.144135 
	C316.323700,187.092316 316.622223,187.277328 316.997375,187.722000 
z"/>
<path fill="#C2A46E" opacity="1.000000" stroke="none" 
	d="
M320.007446,190.716248 
	C319.806183,190.779007 319.525665,190.581406 319.134094,190.146988 
	C319.324768,190.092087 319.626495,190.274002 320.007446,190.716248 
z"/>
<path fill="#C2A46E" opacity="1.000000" stroke="none" 
	d="
M323.011108,193.713409 
	C322.811279,193.776459 322.530334,193.579468 322.135803,193.147095 
	C322.324799,193.092270 322.627380,193.272827 323.011108,193.713409 
z"/>
<path fill="#C4A877" opacity="1.000000" stroke="none" 
	d="
M165.715790,207.921936 
	C165.785141,208.126266 165.589157,208.434311 165.139648,208.858917 
	C165.074234,208.658859 165.262344,208.342255 165.715790,207.921936 
z"/>
<path fill="#C2A46E" opacity="1.000000" stroke="none" 
	d="
M336.009613,208.714935 
	C335.808929,208.777542 335.527252,208.580444 335.134918,208.145660 
	C335.325714,208.090378 335.627167,208.272797 336.009613,208.714935 
z"/>
<path fill="#C2A46E" opacity="1.000000" stroke="none" 
	d="
M337.009277,209.713974 
	C336.808777,209.776764 336.527161,209.580063 336.134827,209.146011 
	C336.325439,209.090591 336.626831,209.272537 337.009277,209.713974 
z"/>
<path fill="#C4A877" opacity="1.000000" stroke="none" 
	d="
M162.734512,211.930435 
	C162.707428,212.017136 162.443909,212.122833 162.104248,212.056854 
	C162.028076,211.885178 162.498093,211.949448 162.734512,211.930435 
z"/>
<path fill="#C2A46E" opacity="1.000000" stroke="none" 
	d="
M306.005188,176.726151 
	C305.813263,176.781799 305.532898,176.582733 305.139832,176.147034 
	C305.323700,176.097427 305.620209,176.284439 306.005188,176.726151 
z"/>
<path fill="#C4A877" opacity="1.000000" stroke="none" 
	d="
M105.000854,320.747040 
	C104.998802,321.017975 104.549911,321.021057 104.326469,321.004456 
	C104.224213,320.689056 104.345398,320.390228 104.714218,320.013580 
	C104.975540,320.115875 104.989220,320.295990 105.000854,320.747040 
z"/>
<path fill="#C2A46E" opacity="1.000000" stroke="none" 
	d="
M278.993896,152.718109 
	C278.758942,152.917511 278.486359,152.775818 278.113678,152.366547 
	C278.284576,152.274765 278.598816,152.367447 278.993896,152.718109 
z"/>
<path fill="#C2A46E" opacity="1.000000" stroke="none" 
	d="
M277.011993,151.727478 
	C276.818298,151.782578 276.535675,151.580322 276.139954,151.138458 
	C276.325592,151.089294 276.624329,151.279724 277.011993,151.727478 
z"/>
<path fill="#416070" opacity="1.000000" stroke="none" 
	d="
M188.614151,179.860016 
	C188.778580,180.082062 188.768448,180.259308 188.760162,180.702744 
	C188.761993,180.968948 188.343445,180.866730 188.140167,180.792786 
	C187.936905,180.718842 188.003021,180.229324 188.044830,179.985718 
	C188.086655,179.742126 188.439606,179.815216 188.614151,179.860016 
z"/>
<path fill="#C2A46E" opacity="1.000000" stroke="none" 
	d="
M140.327698,290.465820 
	C140.611557,288.405060 140.337967,286.038513 141.272568,284.334717 
	C146.187515,275.374725 151.146942,266.417816 156.593140,257.776337 
	C162.397903,248.565887 168.116013,239.173035 175.030609,230.818802 
	C186.310791,217.190063 197.884003,203.674011 210.547729,191.358948 
	C221.870712,180.347748 234.705139,170.857712 247.206100,161.124756 
	C249.195953,159.575516 253.965652,158.890823 255.702454,160.173325 
	C265.091187,167.106186 273.929657,174.784271 282.985779,182.593231 
	C283.013702,182.980972 282.907745,183.090714 282.557159,183.043915 
	C274.910950,177.265808 267.467468,171.710510 260.367096,165.746735 
	C254.817764,161.085739 251.915924,159.932404 247.671448,163.267029 
	C236.383499,172.135330 225.082352,181.024948 214.323792,190.515228 
	C207.407944,196.615799 201.130630,203.527313 195.126389,210.553284 
	C186.662689,220.457184 178.315887,230.512619 170.669662,241.047989 
	C163.911713,250.359467 157.935852,260.271973 152.085648,270.196716 
	C148.358963,276.518921 145.491074,283.347351 141.926910,290.063141 
	C141.186371,290.273621 140.757034,290.369720 140.327698,290.465820 
z"/>
<path fill="#426375" opacity="1.000000" stroke="none" 
	d="
M377.523682,304.690308 
	C373.571075,302.486420 369.382416,300.616455 365.707977,298.019104 
	C351.969604,288.307831 336.486176,286.071198 320.128113,285.879761 
	C302.450470,285.672913 287.454163,292.478546 274.180176,302.886414 
	C267.519043,308.109253 261.742401,315.273621 257.587982,322.692383 
	C251.093094,334.290710 246.342712,346.863098 240.782013,358.990204 
	C239.887848,360.940247 238.623779,362.720734 236.935898,364.769135 
	C236.121643,364.934753 235.902191,364.910828 235.800507,364.524536 
	C238.601212,357.371979 241.096222,350.500092 244.006973,343.809052 
	C249.729584,330.654388 255.795135,317.751740 265.772278,306.998962 
	C273.159546,299.037384 282.067383,293.280151 291.784302,289.371887 
	C300.780518,285.753510 310.264008,282.085907 320.521820,284.060822 
	C321.001587,284.153168 321.527649,284.118469 322.015381,284.039490 
	C333.533051,282.173553 344.263123,285.088745 354.806549,289.321564 
	C356.756348,290.104309 358.880951,290.451569 361.219910,291.169739 
	C363.953918,292.973114 366.392883,294.606567 368.831848,296.240051 
	C368.831848,296.240051 368.904205,296.192627 368.943146,296.428741 
	C369.292023,296.823364 369.601929,296.981903 369.911865,297.140411 
	C369.911865,297.140411 369.890076,297.026367 370.022064,297.367645 
	C371.061646,298.190491 371.969269,298.672058 372.876862,299.153625 
	C372.876862,299.153625 372.942841,299.119476 372.989594,299.366150 
	C373.325592,299.846832 373.614838,300.080872 373.904083,300.314911 
	C374.010620,300.596985 374.200439,300.801971 374.829651,301.274719 
	C375.965118,302.643127 376.744385,303.666718 377.523682,304.690308 
z"/>
<path fill="#C2A46E" opacity="1.000000" stroke="none" 
	d="
M283.065247,182.924744 
	C286.468048,185.173035 290.272766,187.029449 293.080750,189.870834 
	C299.961945,196.833923 306.844757,203.888229 312.888275,211.565964 
	C323.621002,225.200943 333.889526,239.211838 344.030640,253.297043 
	C348.382385,259.341248 352.083435,265.877472 355.767914,272.367371 
	C357.285889,275.041168 357.982178,278.181488 359.031372,281.547058 
	C359.010559,281.984528 358.916351,282.075256 358.594482,281.933990 
	C353.124847,273.005615 348.525330,263.834869 342.705475,255.518066 
	C333.103119,241.796005 323.072052,228.334351 312.533081,215.320587 
	C304.936646,205.940292 296.221649,197.465851 288.004822,188.588028 
	C286.307434,186.754089 284.606842,184.923080 282.907745,183.090714 
	C282.907745,183.090714 283.013702,182.980972 283.065247,182.924744 
z"/>
<path fill="#416273" opacity="1.000000" stroke="none" 
	d="
M140.290573,290.613831 
	C140.757034,290.369720 141.186371,290.273621 142.289490,290.019684 
	C151.343475,287.878174 159.688492,285.721191 168.123672,284.008179 
	C170.939911,283.436279 174.003571,283.816742 176.924561,284.084442 
	C182.301590,284.577148 187.656738,285.308807 193.020996,285.940857 
	C190.984192,286.115234 188.934250,286.532898 186.912720,286.423950 
	C174.986282,285.781006 163.162827,285.185730 151.592361,289.545593 
	C139.799149,293.989471 129.568680,300.718140 120.963249,309.712402 
	C116.308174,314.577789 112.683289,320.428864 108.233749,325.865387 
	C107.900909,325.460449 107.927994,325.025421 108.248505,324.069336 
	C108.790070,322.771729 109.038208,321.995087 109.286346,321.218475 
	C109.511086,321.002045 109.687988,320.751801 110.100677,320.004883 
	C110.979439,318.410400 111.574570,317.278778 112.169693,316.147125 
	C112.169693,316.147125 112.145584,316.079498 112.378983,316.004272 
	C112.777237,315.602631 112.942093,315.276215 113.106949,314.949829 
	C113.106941,314.949829 113.241898,314.730286 113.444519,314.439148 
	C113.803833,313.791077 113.960533,313.434113 114.117226,313.077148 
	C114.117226,313.077148 114.012657,313.048431 114.311172,313.013123 
	C114.774406,312.674805 114.939140,312.371796 115.103874,312.068817 
	C115.103874,312.068817 115.013557,312.084412 115.335770,311.954956 
	C115.852020,311.275177 116.046059,310.724884 116.240097,310.174591 
	C116.240097,310.174591 116.233246,310.245056 116.592361,310.211060 
	C118.371902,308.524597 119.792320,306.872162 121.212738,305.219727 
	C121.212738,305.219727 121.202515,305.150055 121.430779,305.097412 
	C121.828506,304.744415 121.997971,304.444092 122.167435,304.143768 
	C122.167435,304.143768 122.159866,304.222076 122.515106,304.187134 
	C123.928978,303.117126 124.987625,302.082092 126.046265,301.047058 
	C126.046265,301.047058 126.000610,301.001221 126.304489,300.899811 
	C126.820427,300.262085 127.032486,299.725739 127.244545,299.189423 
	C127.244545,299.189423 127.138649,299.163391 127.470795,299.252747 
	C128.246262,298.957611 128.689575,298.573151 129.132904,298.188690 
	C129.132904,298.188690 129.081741,298.002441 129.413544,298.103333 
	C130.246704,297.841339 130.748062,297.478424 131.249435,297.115540 
	C132.077118,296.649261 132.904785,296.182983 134.182281,295.366150 
	C134.914261,294.726318 135.196442,294.436981 135.478622,294.147675 
	C135.478622,294.147675 135.751083,294.229767 136.211914,294.121582 
	C137.809570,293.013977 138.946411,292.014557 140.083267,291.015137 
	C140.083267,291.015137 140.253448,290.761810 140.290573,290.613831 
z"/>
<path fill="#C2A46E" opacity="1.000000" stroke="none" 
	d="
M368.756226,295.898438 
	C366.392883,294.606567 363.953918,292.973114 361.259247,290.764465 
	C360.307800,287.484650 359.612091,284.779938 358.916351,282.075256 
	C358.916351,282.075256 359.010559,281.984528 359.057861,281.938385 
	C360.243652,283.024323 361.612701,284.004913 362.475311,285.318176 
	C364.664764,288.651550 366.627228,292.134003 368.756226,295.898438 
z"/>
<path fill="#C2A46E" opacity="1.000000" stroke="none" 
	d="
M377.646698,304.732727 
	C376.744385,303.666718 375.965118,302.643127 375.035339,301.332947 
	C381.008331,302.565125 384.328064,307.090881 386.959290,312.697021 
	C384.159271,310.438019 381.384399,307.810089 378.291565,305.059448 
	C377.973602,304.936737 377.769714,304.775116 377.646698,304.732727 
z"/>
<path fill="#C4A877" opacity="1.000000" stroke="none" 
	d="
M138.469696,228.628815 
	C138.187103,223.617462 138.136292,218.274033 138.151703,212.467651 
	C138.379105,217.435394 138.540314,222.866043 138.469696,228.628815 
z"/>
<path fill="#C2A46E" opacity="1.000000" stroke="none" 
	d="
M120.850235,305.182251 
	C119.792320,306.872162 118.371902,308.524597 116.627762,310.211700 
	C117.698608,308.545868 119.093170,306.845337 120.850235,305.182251 
z"/>
<path fill="#C2A46E" opacity="1.000000" stroke="none" 
	d="
M139.709808,291.008636 
	C138.946411,292.014557 137.809570,293.013977 136.338013,294.055725 
	C137.114319,293.066071 138.225342,292.034088 139.709808,291.008636 
z"/>
<path fill="#C2A46E" opacity="1.000000" stroke="none" 
	d="
M125.673065,301.028809 
	C124.987625,302.082092 123.928978,303.117126 122.554100,304.192261 
	C123.258530,303.158447 124.279198,302.084473 125.673065,301.028809 
z"/>
<path fill="#C2A46E" opacity="1.000000" stroke="none" 
	d="
M111.814926,316.132202 
	C111.574570,317.278778 110.979439,318.410400 110.156639,319.780914 
	C110.439362,318.718933 110.949753,317.418121 111.814926,316.132202 
z"/>
<path fill="#C2A46E" opacity="1.000000" stroke="none" 
	d="
M389.003601,315.633698 
	C388.323425,315.222656 387.646973,314.458008 386.944580,313.376709 
	C387.614838,313.800079 388.311096,314.540070 389.003601,315.633698 
z"/>
<path fill="#C2A46E" opacity="1.000000" stroke="none" 
	d="
M372.862305,298.790222 
	C371.969269,298.672058 371.061646,298.190491 370.012878,297.424988 
	C370.863739,297.569611 371.855743,297.998199 372.862305,298.790222 
z"/>
<path fill="#C4A877" opacity="1.000000" stroke="none" 
	d="
M173.197235,200.921631 
	C173.339386,200.293091 173.842804,199.635849 174.614990,198.806976 
	C174.442001,199.387894 174.000244,200.140427 173.197235,200.921631 
z"/>
<path fill="#8E8E85" opacity="1.000000" stroke="none" 
	d="
M108.994537,321.311279 
	C109.038208,321.995087 108.790070,322.771729 108.310333,323.745941 
	C108.078728,323.943542 107.959297,323.465759 107.903046,323.225616 
	C108.132103,322.458344 108.417412,321.931183 108.994537,321.311279 
z"/>
<path fill="#C2A46E" opacity="1.000000" stroke="none" 
	d="
M130.917175,297.098328 
	C130.748062,297.478424 130.246704,297.841339 129.428558,298.197906 
	C129.602844,297.821411 130.093887,297.451263 130.917175,297.098328 
z"/>
<path fill="#C2A46E" opacity="1.000000" stroke="none" 
	d="
M115.945587,310.281494 
	C116.046059,310.724884 115.852020,311.275177 115.382080,311.960083 
	C115.287827,311.525940 115.469452,310.957184 115.945587,310.281494 
z"/>
<path fill="#C2A46E" opacity="1.000000" stroke="none" 
	d="
M126.950424,299.285889 
	C127.032486,299.725739 126.820427,300.262085 126.326897,300.921600 
	C126.249054,300.490662 126.452682,299.936493 126.950424,299.285889 
z"/>
<path fill="#C2A46E" opacity="1.000000" stroke="none" 
	d="
M128.815994,298.154114 
	C128.689575,298.573151 128.246262,298.957611 127.495880,299.301147 
	C127.625572,298.880005 128.062332,298.499786 128.815994,298.154114 
z"/>
<path fill="#C2A46E" opacity="1.000000" stroke="none" 
	d="
M373.836670,300.035339 
	C373.614838,300.080872 373.325592,299.846832 372.963379,299.339813 
	C373.183350,299.296478 373.476318,299.526123 373.836670,300.035339 
z"/>
<path fill="#C2A46E" opacity="1.000000" stroke="none" 
	d="
M135.163147,294.209167 
	C135.196442,294.436981 134.914261,294.726318 134.345886,295.122772 
	C134.322342,294.910187 134.584991,294.590424 135.163147,294.209167 
z"/>
<path fill="#C2A46E" opacity="1.000000" stroke="none" 
	d="
M369.816406,296.895416 
	C369.601929,296.981903 369.292023,296.823364 368.905518,296.407410 
	C369.126282,296.316772 369.423584,296.483582 369.816406,296.895416 
z"/>
<path fill="#C2A46E" opacity="1.000000" stroke="none" 
	d="
M121.915627,304.218201 
	C121.997971,304.444092 121.828506,304.744415 121.396088,305.103455 
	C121.310028,304.872314 121.486923,304.582489 121.915627,304.218201 
z"/>
<path fill="#C2A46E" opacity="1.000000" stroke="none" 
	d="
M114.864212,312.165100 
	C114.939140,312.371796 114.774406,312.674805 114.351898,313.048889 
	C114.270927,312.833832 114.447739,312.547607 114.864212,312.165100 
z"/>
<path fill="#C2A46E" opacity="1.000000" stroke="none" 
	d="
M113.850449,313.224701 
	C113.960533,313.434113 113.803833,313.791077 113.397194,314.319336 
	C113.292725,314.117828 113.438194,313.745026 113.850449,313.224701 
z"/>
<path fill="#C2A46E" opacity="1.000000" stroke="none" 
	d="
M112.867722,315.077240 
	C112.942093,315.276215 112.777237,315.602631 112.347519,316.021515 
	C112.264603,315.810913 112.446548,315.507782 112.867722,315.077240 
z"/>
<path fill="#000000" opacity="1.000000" stroke="none" 
	d="
M358.594482,281.933990 
	C359.612091,284.779938 360.307800,287.484650 360.964203,290.594604 
	C358.880951,290.451569 356.756348,290.104309 354.806549,289.321564 
	C344.263123,285.088745 333.533051,282.173553 322.015381,284.039490 
	C321.527649,284.118469 321.001587,284.153168 320.521820,284.060822 
	C310.264008,282.085907 300.780518,285.753510 291.784302,289.371887 
	C282.067383,293.280151 273.159546,299.037384 265.772278,306.998962 
	C255.795135,317.751740 249.729584,330.654388 244.006973,343.809052 
	C241.096222,350.500092 238.601212,357.371979 235.524353,364.656158 
	C232.182114,371.486450 229.128571,377.776337 226.310471,384.169983 
	C222.246445,393.390381 216.918747,401.842773 208.620880,407.579346 
	C202.951630,411.498749 196.235275,413.903534 189.987061,416.985474 
	C189.551041,417.010162 189.115021,417.034821 188.097855,417.035706 
	C187.345200,417.041382 187.173691,417.070801 186.607101,417.224182 
	C180.022186,417.552002 173.813934,418.129211 167.649231,417.824707 
	C163.724426,417.630859 159.864258,416.128967 155.975113,415.213562 
	C155.975113,415.213562 155.510437,415.095734 155.110992,414.738220 
	C152.834793,413.544739 150.958069,412.708740 149.081345,411.872711 
	C149.081345,411.872711 149.006714,411.941437 148.923508,411.634094 
	C148.227844,411.247803 147.615402,411.168854 147.002945,411.089905 
	C146.547028,410.793884 146.091110,410.497894 145.244690,409.752258 
	C139.903809,404.818634 133.839966,401.077301 130.245682,395.688721 
	C123.706802,385.885498 118.421814,375.360626 118.765724,362.723206 
	C118.984825,354.672241 118.769241,346.795471 122.321053,339.310364 
	C123.420288,336.993805 124.006096,334.433594 124.999146,331.685974 
	C127.937622,327.937866 130.354904,324.121063 133.532211,321.104950 
	C145.605820,309.643860 159.595840,302.255341 176.752975,303.010040 
	C182.461655,303.261139 188.114456,305.090118 193.811005,305.193359 
	C197.188507,305.254547 201.956757,304.411804 203.736572,302.131256 
	C208.482788,296.049774 202.888290,286.573608 194.975525,286.228577 
	C194.538895,286.178284 194.102264,286.128021 193.343323,286.009277 
	C187.656738,285.308807 182.301590,284.577148 176.924561,284.084442 
	C174.003571,283.816742 170.939911,283.436279 168.123672,284.008179 
	C159.688492,285.721191 151.343475,287.878174 142.600693,289.905334 
	C145.491074,283.347351 148.358963,276.518921 152.085648,270.196716 
	C157.935852,260.271973 163.911713,250.359467 170.669662,241.047989 
	C178.315887,230.512619 186.662689,220.457184 195.126389,210.553284 
	C201.130630,203.527313 207.407944,196.615799 214.323792,190.515228 
	C225.082352,181.024948 236.383499,172.135330 247.671448,163.267029 
	C251.915924,159.932404 254.817764,161.085739 260.367096,165.746735 
	C267.467468,171.710510 274.910950,177.265808 282.557159,183.043915 
	C284.606842,184.923080 286.307434,186.754089 288.004822,188.588028 
	C296.221649,197.465851 304.936646,205.940292 312.533081,215.320587 
	C323.072052,228.334351 333.103119,241.796005 342.705475,255.518066 
	C348.525330,263.834869 353.124847,273.005615 358.594482,281.933990 
M253.032410,233.787430 
	C253.601700,234.494720 254.165329,235.807648 254.741165,235.813019 
	C259.132416,235.853973 263.832947,236.481995 267.754303,235.053162 
	C269.147278,234.545578 268.651398,228.844650 269.008240,225.513489 
	C269.060547,225.025360 269.059723,224.531509 269.731384,223.660004 
	C268.833191,222.445724 267.932312,220.189316 267.037170,220.191574 
	C262.331696,220.203506 257.626801,220.777176 252.926208,221.205505 
	C252.743240,221.222168 252.455795,221.754135 252.471024,222.032074 
	C252.670609,225.676941 252.915970,229.319290 253.032410,233.787430 
M253.236557,245.388580 
	C253.782410,248.495499 253.759338,253.984421 254.977768,254.275452 
	C259.103210,255.260803 265.649506,256.088593 267.568024,253.830597 
	C270.011108,250.955276 268.845215,245.013489 269.265564,240.032486 
	C264.322235,240.032486 260.506500,239.848190 256.734009,240.170456 
	C255.861542,240.244995 255.136978,242.051254 254.196259,243.686813 
	C254.108337,244.106003 254.020432,244.525177 253.236557,245.388580 
M233.035339,224.632446 
	C233.043991,227.293915 232.438583,230.167709 233.261490,232.547638 
	C233.885727,234.352982 236.235733,236.606247 237.982849,236.757828 
	C241.453842,237.058975 245.038635,236.048264 248.898773,235.536942 
	C248.898773,234.212341 248.892578,232.913239 248.899734,231.614197 
	C248.968918,219.037476 248.976334,219.172577 236.397781,219.802933 
	C233.322403,219.957062 232.739670,221.173676 233.035339,224.632446 
M249.992889,246.606445 
	C249.785706,242.594040 249.586746,238.492188 244.009811,238.583099 
	C240.476578,238.640686 236.948090,238.988083 232.997238,239.231369 
	C232.997238,241.486816 232.970581,243.603302 233.001724,245.718933 
	C233.152222,255.941574 231.478699,255.050644 242.273132,254.962753 
	C249.449448,254.904312 249.825180,254.527496 249.992889,246.606445 
z"/>
<path fill="#000000" opacity="1.000000" stroke="none" 
	d="
M284.956879,404.152679 
	C284.956879,404.152679 284.512634,404.072937 284.202271,403.780975 
	C283.593506,403.318176 283.295074,403.147339 282.996674,402.976501 
	C282.926086,402.640228 282.748169,402.376312 282.158600,401.848511 
	C281.571930,401.331085 281.289612,401.149902 281.007294,400.968719 
	C281.007294,400.968719 280.998566,401.002472 280.884460,400.680725 
	C270.671143,389.145660 265.280579,376.021423 264.966278,360.912445 
	C264.770477,351.499969 267.717682,342.753571 271.355530,333.935547 
	C276.338837,328.136627 280.427979,321.850281 285.830536,317.038666 
	C300.189301,304.250549 317.314362,300.474976 336.052917,303.978455 
	C350.931366,306.760315 363.059753,314.613373 371.677094,326.716370 
	C376.880188,334.024017 379.897461,342.887970 383.896881,351.052643 
	C383.928741,356.360687 383.960571,361.668762 383.682892,367.628113 
	C381.240265,373.691162 379.210388,379.146362 376.953613,384.506012 
	C371.465912,397.538971 360.806000,405.374298 348.655518,412.124878 
	C346.930817,413.104156 345.647827,414.485687 344.155762,414.769897 
	C333.364532,416.825623 322.987762,419.463898 311.430176,416.479218 
	C302.010132,414.046570 294.316010,409.292389 286.019562,404.699707 
	C285.593506,404.352936 285.275177,404.252808 284.956879,404.152679 
z"/>
<path fill="#3B6076" opacity="1.000000" stroke="none" 
	d="
M384.173401,350.799683 
	C379.897461,342.887970 376.880188,334.024017 371.677094,326.716370 
	C363.059753,314.613373 350.931366,306.760315 336.052917,303.978455 
	C317.314362,300.474976 300.189301,304.250549 285.830536,317.038666 
	C280.427979,321.850281 276.338837,328.136627 271.233704,333.660034 
	C270.537506,333.035248 270.258514,332.501099 269.979553,331.966919 
	C273.631500,325.273346 277.637543,318.947327 284.051300,314.370941 
	C294.265869,307.082581 304.896667,301.235535 317.916443,300.943878 
	C329.961578,300.674072 341.567139,301.532013 352.789307,306.906555 
	C363.608398,312.088043 371.427338,319.966431 377.079285,330.127289 
	C380.087677,335.535706 382.168274,341.469055 384.515320,347.227539 
	C384.898895,348.168701 384.491669,349.432190 384.173401,350.799683 
z"/>
<path fill="#416273" opacity="1.000000" stroke="none" 
	d="
M195.060211,286.549255 
	C202.888290,286.573608 208.482788,296.049774 203.736572,302.131256 
	C201.956757,304.411804 197.188507,305.254547 193.811005,305.193359 
	C188.114456,305.090118 182.461655,303.261139 176.752975,303.010040 
	C159.595840,302.255341 145.605820,309.643860 133.532211,321.104950 
	C130.354904,324.121063 127.937622,327.937866 124.793808,331.688721 
	C124.416290,331.990509 124.005264,331.991455 124.005264,331.991455 
	C125.535782,324.372742 130.571213,319.017792 136.304016,314.554932 
	C147.823074,305.587708 160.635376,299.800415 175.748154,300.990479 
	C181.627014,301.453400 187.600479,301.389343 193.359329,302.475128 
	C197.497330,303.255280 200.114685,302.555634 201.914307,298.820343 
	C203.935410,294.625336 201.092972,292.065979 198.676941,289.457550 
	C197.703293,288.406342 196.334076,287.721527 195.060211,286.549255 
z"/>
<path fill="#3A5C73" opacity="1.000000" stroke="none" 
	d="
M123.640900,332.047394 
	C124.005264,331.991455 124.416290,331.990509 124.621628,331.987732 
	C124.006096,334.433594 123.420288,336.993805 122.321053,339.310364 
	C118.769241,346.795471 118.984825,354.672241 118.765724,362.723206 
	C118.421814,375.360626 123.706802,385.885498 130.245682,395.688721 
	C133.839966,401.077301 139.903809,404.818634 145.001678,409.619995 
	C144.001190,409.854645 142.509796,410.210297 141.758316,409.621582 
	C134.116867,403.634583 126.184395,397.887482 122.817574,388.086609 
	C120.903366,382.514282 118.043327,377.176819 116.827316,371.473907 
	C114.465271,360.396118 114.864914,349.319489 119.903336,338.818634 
	C120.986794,336.560547 122.150032,334.340759 123.640900,332.047394 
z"/>
<path fill="#3A5C73" opacity="1.000000" stroke="none" 
	d="
M269.615051,332.033752 
	C270.258514,332.501099 270.537506,333.035248 270.938293,333.844910 
	C267.717682,342.753571 264.770477,351.499969 264.966278,360.912445 
	C265.280579,376.021423 270.671143,389.145660 280.899658,400.672241 
	C279.745819,400.428314 278.049133,400.218903 277.243164,399.260468 
	C268.672150,389.068268 263.645782,377.832092 262.536621,364.011444 
	C261.671417,353.231171 265.406464,343.970978 267.251465,334.062836 
	C267.391479,333.310730 268.560059,332.750153 269.615051,332.033752 
z"/>
<path fill="#406277" opacity="1.000000" stroke="none" 
	d="
M190.244751,417.249756 
	C196.235275,413.903534 202.951630,411.498749 208.620880,407.579346 
	C216.918747,401.842773 222.246445,393.390381 226.310471,384.169983 
	C229.128571,377.776337 232.182114,371.486450 235.406601,365.018555 
	C235.902191,364.910828 236.121643,364.934753 236.670914,364.988342 
	C236.996323,365.462097 236.991928,365.906189 236.753845,366.860199 
	C236.353119,367.909851 236.186050,368.449554 236.018967,368.989227 
	C233.680405,374.974121 232.218781,381.517487 228.832474,386.835175 
	C220.037415,400.646515 211.128036,414.780945 192.899200,417.808563 
	C192.137604,417.935059 191.303009,417.622192 190.244751,417.249756 
z"/>
<path fill="#406277" opacity="1.000000" stroke="none" 
	d="
M349.000458,412.019135 
	C360.806000,405.374298 371.465912,397.538971 376.953613,384.506012 
	C379.210388,379.146362 381.240265,373.691162 383.657593,368.088623 
	C385.201569,385.106537 367.000183,408.178131 352.165131,412.681946 
	C350.772278,412.444427 349.886353,412.231781 349.000458,412.019135 
z"/>
<path fill="#3B6076" opacity="1.000000" stroke="none" 
	d="
M348.655518,412.124878 
	C349.886353,412.231781 350.772278,412.444427 351.834106,412.828552 
	C344.327209,415.329742 336.782837,418.797058 328.932770,419.752228 
	C312.616669,421.737518 297.993164,416.202118 284.805908,406.705231 
	C284.542755,406.515686 284.622559,405.849976 285.046387,405.194397 
	C285.742706,404.970398 285.934998,404.958374 286.127319,404.946381 
	C294.316010,409.292389 302.010132,414.046570 311.430176,416.479218 
	C322.987762,419.463898 333.364532,416.825623 344.155762,414.769897 
	C345.647827,414.485687 346.930817,413.104156 348.655518,412.124878 
z"/>
<path fill="#3B6076" opacity="1.000000" stroke="none" 
	d="
M156.076508,415.549072 
	C159.864258,416.128967 163.724426,417.630859 167.649231,417.824707 
	C173.813934,418.129211 180.022186,417.552002 186.605835,417.448792 
	C186.999649,417.549438 187.000610,417.998779 187.000610,417.998779 
	C184.439865,418.971069 181.859085,420.812836 179.322113,420.754333 
	C171.369110,420.571075 163.367661,419.970520 156.076508,415.549072 
z"/>
<path fill="#416273" opacity="1.000000" stroke="none" 
	d="
M105.312233,331.904724 
	C105.694618,329.966614 106.433846,327.980286 107.531731,325.941895 
	C107.149956,327.878723 106.409515,329.867615 105.312233,331.904724 
z"/>
<path fill="#3B6076" opacity="1.000000" stroke="none" 
	d="
M149.119751,412.239197 
	C150.958069,412.708740 152.834793,413.544739 154.877411,414.684479 
	C153.081573,414.194031 151.119858,413.399841 149.119751,412.239197 
z"/>
<path fill="#426375" opacity="1.000000" stroke="none" 
	d="
M236.297882,368.951721 
	C236.186050,368.449554 236.353119,367.909851 236.747040,367.193390 
	C236.841537,367.649170 236.709167,368.281677 236.297882,368.951721 
z"/>
<path fill="#416273" opacity="1.000000" stroke="none" 
	d="
M104.202393,334.850891 
	C103.971062,334.359650 104.006882,333.644196 104.030258,332.576538 
	C104.017799,332.224396 104.458252,332.004578 104.703247,331.982605 
	C104.788673,332.849304 104.629105,333.738007 104.202393,334.850891 
z"/>
<path fill="#416273" opacity="1.000000" stroke="none" 
	d="
M103.075089,337.934509 
	C102.986893,337.325012 103.202644,336.746796 103.645752,335.950867 
	C103.912216,336.237335 103.951317,336.741577 103.989777,337.623291 
	C103.785774,337.989136 103.582405,337.977478 103.075089,337.934509 
z"/>
<path fill="#3B6076" opacity="1.000000" stroke="none" 
	d="
M147.204010,411.307739 
	C147.615402,411.168854 148.227844,411.247803 148.972839,411.622314 
	C148.538620,411.787079 147.971863,411.656311 147.204010,411.307739 
z"/>
<path fill="#3A5C73" opacity="1.000000" stroke="none" 
	d="
M283.116241,403.201630 
	C283.295074,403.147339 283.593506,403.318176 283.980255,403.740417 
	C283.791016,403.803467 283.513397,403.615112 283.116241,403.201630 
z"/>
<path fill="#3A5C73" opacity="1.000000" stroke="none" 
	d="
M400.120270,346.203979 
	C400.325165,346.114624 400.577087,346.320129 400.874084,346.822723 
	C400.672638,346.906982 400.422028,346.700012 400.120270,346.203979 
z"/>
<path fill="#406277" opacity="1.000000" stroke="none" 
	d="
M187.208389,417.900757 
	C187.000610,417.998779 186.999649,417.549438 187.000916,417.324829 
	C187.173691,417.070801 187.345200,417.041382 187.771927,417.068909 
	C187.882248,417.404602 187.678589,417.630188 187.208389,417.900757 
z"/>
<path fill="#3A5C73" opacity="1.000000" stroke="none" 
	d="
M281.115509,401.192627 
	C281.289612,401.149902 281.571930,401.331085 281.932251,401.758362 
	C281.685730,401.891998 281.423523,401.696014 281.115509,401.192627 
z"/>
<path fill="#3A5C73" opacity="1.000000" stroke="none" 
	d="
M286.019562,404.699707 
	C285.934998,404.958374 285.742706,404.970398 285.260834,404.984802 
	C284.971222,404.987244 284.975677,404.568848 284.966278,404.360779 
	C285.275177,404.252808 285.593506,404.352936 286.019562,404.699707 
z"/>
<path fill="#3A5C73" opacity="1.000000" stroke="none" 
	d="
M264.896942,409.773376 
	C264.697845,409.873474 264.440979,409.683380 264.127014,409.202637 
	C264.326416,409.102539 264.582855,409.292938 264.896942,409.773376 
z"/>
<path fill="#3A5C73" opacity="1.000000" stroke="none" 
	d="
M265.223083,410.898315 
	C265.063171,410.832184 265.047180,410.663727 265.024780,410.241547 
	C265.134583,410.257202 265.250824,410.526611 265.223083,410.898315 
z"/>
<path fill="#000000" opacity="1.000000" stroke="none" 
	d="
M250.964828,94.084724 
	C254.654510,96.280708 258.391724,98.454720 262.142029,100.605881 
	C264.356201,101.875916 266.591095,103.109825 268.909180,105.150864 
	C268.944092,118.597954 268.886444,131.254181 268.828827,143.910400 
	C264.240173,141.416199 259.442383,139.232864 255.128204,136.330643 
	C251.598404,133.956070 248.807800,134.773148 245.742325,136.746643 
	C236.989624,142.381470 228.216965,147.985291 218.967575,153.911819 
	C218.967575,148.781204 218.967575,144.335983 218.976974,138.963547 
	C219.001999,118.374344 219.017639,98.712341 219.033264,79.050339 
	C221.402725,79.958191 223.864441,80.680847 226.125015,81.807228 
	C234.177536,85.819565 242.161606,89.969231 250.549835,94.103691 
	C250.928055,94.140480 251.017868,94.053139 250.964828,94.084724 
z"/>
<path fill="#FFE1C9" opacity="1.000000" stroke="none" 
	d="
M218.714203,79.316376 
	C219.017639,98.712341 219.001999,118.374344 218.914520,138.499603 
	C218.582642,138.384659 218.093643,137.805649 218.095764,137.228424 
	C218.166565,118.012985 218.284271,98.797707 218.714203,79.316376 
z"/>
<path fill="#FEFCB9" opacity="1.000000" stroke="none" 
	d="
M269.125793,144.005890 
	C268.886444,131.254181 268.944092,118.597954 269.064331,105.474518 
	C269.389954,105.403496 269.886017,105.801956 269.882172,106.195541 
	C269.758850,118.831100 269.587189,131.466202 269.125793,144.005890 
z"/>
<path fill="#2B6587" opacity="1.000000" stroke="none" 
	d="
M185.914337,86.615250 
	C185.994537,118.334251 185.986450,149.699020 185.972275,181.532806 
	C181.698380,186.815643 177.430557,191.629456 172.182526,197.548889 
	C172.182526,189.805878 172.103027,183.451508 172.219009,177.100708 
	C172.270172,174.299255 172.943481,171.505630 172.950790,168.707474 
	C173.015396,143.893799 172.972046,119.079857 173.013351,94.266083 
	C173.023621,88.096390 180.322540,83.596825 185.914337,86.615250 
z"/>
<path fill="#33586D" opacity="1.000000" stroke="none" 
	d="
M184.460602,83.524628 
	C184.434814,83.478859 184.486404,83.570404 184.460602,83.524628 
z"/>
<path fill="#416070" opacity="1.000000" stroke="none" 
	d="
M233.035004,224.164627 
	C232.739670,221.173676 233.322403,219.957062 236.397781,219.802933 
	C248.976334,219.172577 248.968918,219.037476 248.899734,231.614197 
	C248.892578,232.913239 248.898773,234.212341 248.898773,235.536942 
	C245.038635,236.048264 241.453842,237.058975 237.982849,236.757828 
	C236.235733,236.606247 233.885727,234.352982 233.261490,232.547638 
	C232.438583,230.167709 233.043991,227.293915 233.035004,224.164627 
M238.024582,222.201996 
	C234.539902,223.544403 235.115768,226.557037 234.976059,229.362183 
	C234.812943,232.637344 236.572815,233.976181 239.486130,233.934280 
	C242.266647,233.894302 246.048264,235.258133 246.723679,230.862640 
	C247.171112,227.950836 248.354584,224.254196 244.207642,222.727188 
	C242.563034,222.121597 240.644836,222.259033 238.024582,222.201996 
z"/>
<path fill="#2B6587" opacity="1.000000" stroke="none" 
	d="
M253.932526,244.944351 
	C254.020432,244.525177 254.108337,244.106003 254.642975,243.279663 
	C256.870941,242.579132 258.648132,242.066040 260.434174,242.032990 
	C266.100372,241.928040 267.221924,243.245926 266.886200,249.705078 
	C266.647430,254.298965 262.979919,252.685303 260.453430,252.991211 
	C256.837708,253.429031 254.649429,252.265244 254.944351,248.103058 
	C255.016907,247.079193 254.291229,245.998764 253.932526,244.944351 
z"/>
<path fill="#C2A46E" opacity="1.000000" stroke="none" 
	d="
M249.991913,247.043579 
	C249.825180,254.527496 249.449448,254.904312 242.273132,254.962753 
	C231.478699,255.050644 233.152222,255.941574 233.001724,245.718933 
	C232.970581,243.603302 232.997238,241.486816 232.997238,239.231369 
	C236.948090,238.988083 240.476578,238.640686 244.009811,238.583099 
	C249.586746,238.492188 249.785706,242.594040 249.991913,247.043579 
M234.002090,246.579483 
	C234.492752,248.554962 234.618942,252.008621 235.540649,252.235886 
	C238.623276,252.995926 242.120895,253.124374 245.176529,252.361313 
	C246.218979,252.100998 246.778549,248.512466 246.914581,246.403091 
	C247.055023,244.225494 248.093674,241.292725 243.959763,240.952591 
	C237.710373,240.438400 234.811630,241.638916 234.002090,246.579483 
z"/>
<path fill="#33586D" opacity="1.000000" stroke="none" 
	d="
M253.584534,245.166473 
	C254.291229,245.998764 255.016907,247.079193 254.944351,248.103058 
	C254.649429,252.265244 256.837708,253.429031 260.453430,252.991211 
	C262.979919,252.685303 266.647430,254.298965 266.886200,249.705078 
	C267.221924,243.245926 266.100372,241.928040 260.434174,242.032990 
	C258.648132,242.066040 256.870941,242.579132 254.717026,242.966583 
	C255.136978,242.051254 255.861542,240.244995 256.734009,240.170456 
	C260.506500,239.848190 264.322235,240.032486 269.265564,240.032486 
	C268.845215,245.013489 270.011108,250.955276 267.568024,253.830597 
	C265.649506,256.088593 259.103210,255.260803 254.977768,254.275452 
	C253.759338,253.984421 253.782410,248.495499 253.584534,245.166473 
z"/>
<path fill="#C2A46E" opacity="1.000000" stroke="none" 
	d="
M269.083435,224.040314 
	C269.059723,224.531509 269.060547,225.025360 269.008240,225.513489 
	C268.651398,228.844650 269.147278,234.545578 267.754303,235.053162 
	C263.832947,236.481995 259.132416,235.853973 254.741165,235.813019 
	C254.165329,235.807648 253.601700,234.494720 253.342377,233.054443 
	C253.766357,230.846313 253.964584,229.372055 253.979996,227.895859 
	C254.052368,220.959610 254.034454,220.959427 260.922607,221.395569 
	C259.054138,222.445206 256.174774,222.738388 255.769882,223.896622 
	C254.957260,226.221115 254.440628,230.214661 255.720657,231.343445 
	C257.711853,233.099380 261.306519,233.503113 264.215271,233.484665 
	C265.158051,233.478683 266.834564,230.351913 266.836090,228.651443 
	C266.838348,226.112747 265.654144,223.572998 265.332031,221.032806 
	C266.820740,222.034729 267.952087,223.037521 269.083435,224.040314 
z"/>
<path fill="#C9AF85" opacity="1.000000" stroke="none" 
	d="
M269.407410,223.850159 
	C267.952087,223.037521 266.820740,222.034729 264.937897,221.026672 
	C263.134613,221.024399 262.082825,221.027420 261.031036,221.030426 
	C254.034454,220.959427 254.052368,220.959610 253.979996,227.895859 
	C253.964584,229.372055 253.766357,230.846313 253.401108,232.641876 
	C252.915970,229.319290 252.670609,225.676941 252.471024,222.032074 
	C252.455795,221.754135 252.743240,221.222168 252.926208,221.205505 
	C257.626801,220.777176 262.331696,220.203506 267.037170,220.191574 
	C267.932312,220.189316 268.833191,222.445724 269.407410,223.850159 
z"/>
<path fill="#2C6587" opacity="1.000000" stroke="none" 
	d="
M238.437897,222.130096 
	C240.644836,222.259033 242.563034,222.121597 244.207642,222.727188 
	C248.354584,224.254196 247.171112,227.950836 246.723679,230.862640 
	C246.048264,235.258133 242.266647,233.894302 239.486130,233.934280 
	C236.572815,233.976181 234.812943,232.637344 234.976059,229.362183 
	C235.115768,226.557037 234.539902,223.544403 238.437897,222.130096 
z"/>
<path fill="#D4A857" opacity="1.000000" stroke="none" 
	d="
M234.002441,246.141724 
	C234.811630,241.638916 237.710373,240.438400 243.959763,240.952591 
	C248.093674,241.292725 247.055023,244.225494 246.914581,246.403091 
	C246.778549,248.512466 246.218979,252.100998 245.176529,252.361313 
	C242.120895,253.124374 238.623276,252.995926 235.540649,252.235886 
	C234.618942,252.008621 234.492752,248.554962 234.002441,246.141724 
z"/>
<path fill="#D4A857" opacity="1.000000" stroke="none" 
	d="
M260.922607,221.395569 
	C262.082825,221.027420 263.134613,221.024399 264.580566,221.027542 
	C265.654144,223.572998 266.838348,226.112747 266.836090,228.651443 
	C266.834564,230.351913 265.158051,233.478683 264.215271,233.484665 
	C261.306519,233.503113 257.711853,233.099380 255.720657,231.343445 
	C254.440628,230.214661 254.957260,226.221115 255.769882,223.896622 
	C256.174774,222.738388 259.054138,222.445206 260.922607,221.395569 
z"/>
</svg>